<svg id="outline-camera_alt-24px" xmlns="http://www.w3.org/2000/svg" width="24" height="22.172" viewBox="0 0 24 22.172">
  <g id="Bounding_Boxes">
    <path id="Path_3016" data-name="Path 3016" d="M0,0H24V22.172H0Z" fill="none"/>
  </g>
  <g id="Outline_1_" transform="translate(2 2)">
    <g id="Group_253" data-name="Group 253">
      <path id="Path_3017" data-name="Path 3017" d="M20,4H16.83L15,2H9L7.17,4H4A2.006,2.006,0,0,0,2,6V18a2.006,2.006,0,0,0,2,2H20a2.006,2.006,0,0,0,2-2V6A2.006,2.006,0,0,0,20,4Zm0,14H4V6H8.05L9.88,4h4.24l1.83,2H20Z" transform="translate(-2 -2)"/>
      <path id="Path_3018" data-name="Path 3018" d="M12,7a5,5,0,1,0,5,5A5,5,0,0,0,12,7Zm0,8a3,3,0,1,1,3-3A3.009,3.009,0,0,1,12,15Z" transform="translate(-2 -2)"/>
    </g>
  </g>
</svg>
