<svg id="outline-local_convenience_store-24px" xmlns="http://www.w3.org/2000/svg" width="35.218" height="35.218" viewBox="0 0 35.218 35.218">
  <g id="Bounding_Boxes">
    <path id="Path_3236" data-name="Path 3236" d="M0,0H35.218V35.218H0Z" fill="none"/>
  </g>
  <g id="Outline" transform="translate(2.935 5.87)">
    <g id="Group_313" data-name="Group 313">
      <path id="Path_3237" data-name="Path 3237" d="M26.946,8.4V4H6.4V8.4H2V27.479H13.739v-5.87h5.87v5.87H31.348V8.4Zm1.467,16.142h-5.87v-5.87H10.8v5.87H4.935V11.337h4.4v-4.4H24.011v4.4h4.4Z" transform="translate(-2 -4)" fill="#585858"/>
      <path id="Path_3238" data-name="Path 3238" d="M8,8.467h2.935V9.935H8v4.4h4.4V12.87H9.467V11.4H12.4V7H8Z" transform="translate(0.804 -2.598)" fill="#585858"/>
      <path id="Path_3239" data-name="Path 3239" d="M15.935,9.935H14.467V7H13v4.4h2.935v2.935H17.4V7H15.935Z" transform="translate(3.142 -2.598)" fill="#585858"/>
    </g>
  </g>
</svg>
