<svg id="baseline-directions_bike-24px" xmlns="http://www.w3.org/2000/svg" width="22.667" height="22.667" viewBox="0 0 22.667 22.667">
  <path id="Path_1818" data-name="Path 1818" d="M0,0H22.667V22.667H0Z" fill="none"/>
  <path id="Path_1819" data-name="Path 1819" d="M14.639,5.278A1.889,1.889,0,1,0,12.75,3.389,1.894,1.894,0,0,0,14.639,5.278ZM4.722,11.417a4.722,4.722,0,1,0,0,9.445,4.722,4.722,0,1,0,0-9.445Zm0,8.028a3.306,3.306,0,1,1,0-6.611,3.306,3.306,0,1,1,0,6.611ZM10.2,10l2.267-2.267.756.756a6.617,6.617,0,0,0,4.817,1.983V8.583a4.692,4.692,0,0,1-3.4-1.417L12.845,5.372a2.316,2.316,0,0,0-1.511-.567,1.585,1.585,0,0,0-1.322.567L7.367,8.017A1.865,1.865,0,0,0,6.8,9.339a1.585,1.585,0,0,0,.567,1.322l3.022,2.645v4.722h1.889V12.172Zm7.745,1.417a4.722,4.722,0,1,0,4.722,4.722A4.676,4.676,0,0,0,17.945,11.417Zm0,8.028a3.306,3.306,0,1,1,3.306-3.306A3.346,3.346,0,0,1,17.945,19.445Z" transform="translate(0 -0.083)" fill="#fff"/>
</svg>
