<svg id="Outline" xmlns="http://www.w3.org/2000/svg" width="15.1" height="21.224" viewBox="0 0 15.1 21.224">
  <g id="Group_209" data-name="Group 209">
    <path id="Path_2832" data-name="Path 2832" d="M11.55,1A7.56,7.56,0,0,0,4,8.55c0,5.257,6.568,12.589,6.851,12.9l.7.774.7-.774c.283-.311,6.851-7.644,6.851-12.9A7.56,7.56,0,0,0,11.55,1Zm0,18.374C9.492,16.911,5.887,11.891,5.887,8.55a5.662,5.662,0,0,1,11.325,0C17.212,12.164,13.2,17.383,11.55,19.374Z" transform="translate(-4 -1)" fill="#fff"/>
    <path id="Path_2833" data-name="Path 2833" d="M10.291,10.911,8.63,9.241l-1.34,1.34,3,3L15.963,7.91,14.632,6.57Z" transform="translate(-4.185 -1.313)" fill="#fff"/>
  </g>
</svg>
