<svg xmlns="http://www.w3.org/2000/svg" xmlns:xlink="http://www.w3.org/1999/xlink" width="266.004" height="760" viewBox="0 0 266.004 760">
  <defs>
    <clipPath id="clip-path">
      <path id="Path_277" data-name="Path 277" d="M0,0H24V24H0Z" fill="#fff"/>
    </clipPath>
  </defs>
  <g id="Component_29_1" data-name="Component 29 – 1" transform="translate(2)">
    <g id="Component_28_1" data-name="Component 28 – 1" transform="translate(0 0)">
      <g id="Component_23_1" data-name="Component 23 – 1" transform="translate(0 433)">
        <line id="Line_8" data-name="Line 8" y2="22.222" transform="translate(0 1.5)" fill="none" stroke="#f4af26" stroke-linecap="round" stroke-width="4" opacity="0"/>
        <text id="Reports" transform="translate(49.889 18)" fill="#fff" font-size="16" font-family="Montserrat-Regular, Montserrat"><tspan x="0" y="0">Reports</tspan></text>
        <g id="outline-assessment-24px" transform="translate(11.889)">
          <g id="Bounding_Boxes">
            <path id="Path_2272" data-name="Path 2272" d="M0,0H24V24H0Z" fill="none"/>
          </g>
          <g id="Outline" transform="translate(3 3)">
            <g id="Group_32" data-name="Group 32">
              <path id="Path_2273" data-name="Path 2273" d="M19,3H5A2.006,2.006,0,0,0,3,5V19a2.006,2.006,0,0,0,2,2H19a2.006,2.006,0,0,0,2-2V5A2.006,2.006,0,0,0,19,3Zm0,16H5V5H19Z" transform="translate(-3 -3)" fill="#fff"/>
              <rect id="Rectangle_11" data-name="Rectangle 11" width="2" height="7" transform="translate(4 7)" fill="#fff"/>
              <rect id="Rectangle_12" data-name="Rectangle 12" width="2" height="10" transform="translate(8 4)" fill="#fff"/>
              <rect id="Rectangle_13" data-name="Rectangle 13" width="2" height="4" transform="translate(12 10)" fill="#fff"/>
            </g>
          </g>
        </g>
      </g>
      <g id="Component_25_1" data-name="Component 25 – 1" transform="translate(0 531)">
        <line id="Line_8-2" data-name="Line 8" y2="22.222" transform="translate(0 0.5)" fill="none" stroke="#f4af26" stroke-linecap="round" stroke-width="4" opacity="0"/>
        <text id="Complaints" transform="translate(49.889 17)" fill="#fff" font-size="16" font-family="Montserrat-Regular, Montserrat"><tspan x="0" y="0">Complaints</tspan></text>
        <g id="outline-assignment-24px" transform="translate(11.889)">
          <g id="Bounding_Boxes-2" data-name="Bounding_Boxes">
            <path id="Path_2274" data-name="Path 2274" d="M0,0H24V24H0Z" fill="none"/>
          </g>
          <g id="Outline-2" data-name="Outline" transform="translate(3 1)">
            <g id="Group_33" data-name="Group 33">
              <rect id="Rectangle_14" data-name="Rectangle 14" width="7" height="2" transform="translate(4 14)" fill="#fff"/>
              <rect id="Rectangle_15" data-name="Rectangle 15" width="10" height="2" transform="translate(4 10)" fill="#fff"/>
              <rect id="Rectangle_16" data-name="Rectangle 16" width="10" height="2" transform="translate(4 6)" fill="#fff"/>
              <path id="Path_2275" data-name="Path 2275" d="M19,3H14.82A2.988,2.988,0,0,0,9.18,3H5a1.752,1.752,0,0,0-.4.04A2.021,2.021,0,0,0,3.16,4.23,1.926,1.926,0,0,0,3,5V19a2.052,2.052,0,0,0,.16.78,2.119,2.119,0,0,0,.43.64,2.008,2.008,0,0,0,1.01.55A2.6,2.6,0,0,0,5,21H19a2.006,2.006,0,0,0,2-2V5A2.006,2.006,0,0,0,19,3Zm-7-.25a.75.75,0,1,1-.75.75A.755.755,0,0,1,12,2.75ZM19,19H5V5H19Z" transform="translate(-3 -1)" fill="#fff"/>
            </g>
          </g>
        </g>
      </g>
      <g id="Component_24_1" data-name="Component 24 – 1" transform="translate(0 482)">
        <line id="Line_8-3" data-name="Line 8" y2="22.222" transform="translate(0 0.5)" fill="none" stroke="#f4af26" stroke-linecap="round" stroke-width="4" opacity="0"/>
        <text id="Drafts" transform="translate(49.889 17)" fill="#fff" font-size="16" font-family="Montserrat-Regular, Montserrat"><tspan x="0" y="0">Drafts</tspan></text>
        <g id="outline-assignment_late-24px" transform="translate(11.889)">
          <g id="Bounding_Boxes-3" data-name="Bounding_Boxes">
            <path id="Path_2280" data-name="Path 2280" d="M0,0H24V24H0Z" fill="none"/>
          </g>
          <g id="Outline-3" data-name="Outline" transform="translate(3 1)">
            <g id="Group_35" data-name="Group 35">
              <rect id="Rectangle_17" data-name="Rectangle 17" width="2" height="2" transform="translate(8 14)" fill="#fff"/>
              <rect id="Rectangle_18" data-name="Rectangle 18" width="2" height="6" transform="translate(8 6)" fill="#fff"/>
              <path id="Path_2281" data-name="Path 2281" d="M19,3H14.82A2.988,2.988,0,0,0,9.18,3H5a1.752,1.752,0,0,0-.4.04A2.021,2.021,0,0,0,3.16,4.23,1.926,1.926,0,0,0,3,5V19a2.052,2.052,0,0,0,.16.78,2.119,2.119,0,0,0,.43.64,2.008,2.008,0,0,0,1.01.55A2.6,2.6,0,0,0,5,21H19a2.006,2.006,0,0,0,2-2V5A2.006,2.006,0,0,0,19,3Zm-7-.25a.75.75,0,1,1-.75.75A.755.755,0,0,1,12,2.75ZM19,19H5V5H19Z" transform="translate(-3 -1)" fill="#fff"/>
            </g>
          </g>
        </g>
      </g>
      <g id="Component_18_1" data-name="Component 18 – 1" transform="translate(0 238)">
        <line id="Line_8-4" data-name="Line 8" y2="22.222" transform="translate(0 0.5)" fill="none" stroke="#f4af26" stroke-linecap="round" stroke-width="4" opacity="0"/>
        <text id="My_Bookings" data-name="My Bookings" transform="translate(49.889 17)" fill="#fff" font-size="16" font-family="Montserrat-Regular, Montserrat"><tspan x="0" y="0">My Bookings</tspan></text>
        <g id="outline-offline_pin-24px" transform="translate(13.889)">
          <g id="Bounding_Boxes-4" data-name="Bounding_Boxes">
            <rect id="Rectangle_38" data-name="Rectangle 38" width="24" height="24" fill="none"/>
          </g>
          <g id="Outline-4" data-name="Outline" transform="translate(2 2)">
            <g id="Group_68" data-name="Group 68">
              <path id="Path_2383" data-name="Path 2383" d="M12,2A10,10,0,1,0,22,12,10.029,10.029,0,0,0,12,2Zm0,18a8,8,0,1,1,8-8A8.011,8.011,0,0,1,12,20Z" transform="translate(-2 -2)" fill="#fff"/>
              <rect id="Rectangle_39" data-name="Rectangle 39" width="10" height="2" transform="translate(5 13)" fill="#fff"/>
              <path id="Path_2384" data-name="Path 2384" d="M10.3,11.2,8.4,9.3,7,10.7,10.3,14,17,7.3,15.6,5.9Z" transform="translate(-2 -2)" fill="#fff"/>
            </g>
          </g>
        </g>
      </g>
      <g id="Component_19_1" data-name="Component 19 – 1" transform="translate(0 286)">
        <line id="Line_8-5" data-name="Line 8" y2="22.222" transform="translate(0 1.5)" fill="none" stroke="#f4af26" stroke-linecap="round" stroke-width="4" opacity="0"/>
        <text id="My_Trips" data-name="My Trips" transform="translate(49.889 18)" fill="#fff" font-size="16" font-family="Montserrat-Regular, Montserrat"><tspan x="0" y="0">My Trips</tspan></text>
        <g id="outline-directions_bus-24px" transform="translate(13.889)">
          <g id="Bounding_Boxes-5" data-name="Bounding_Boxes">
            <path id="Path_3189" data-name="Path 3189" d="M0,0H24V24H0Z" fill="none"/>
          </g>
          <g id="Outline-5" data-name="Outline" transform="translate(4 2)">
            <g id="Group_299" data-name="Group 299">
              <path id="Path_3190" data-name="Path 3190" d="M12,2C7.58,2,4,2.5,4,6V16a2.986,2.986,0,0,0,1,2.22V20a1,1,0,0,0,1,1H7a1,1,0,0,0,1-1V19h8v1a1,1,0,0,0,1,1h1a1,1,0,0,0,1-1V18.22A2.986,2.986,0,0,0,20,16V6C20,2.5,16.42,2,12,2Zm5.66,2.99H6.34C6.89,4.46,8.31,4,12,4S17.11,4.46,17.66,4.99Zm.34,2V10H6V6.99Zm-.34,9.74-.29.27H6.63l-.29-.27A.968.968,0,0,1,6,16V12H18v4A.968.968,0,0,1,17.66,16.73Z" transform="translate(-4 -2)" fill="#fff"/>
              <circle id="Ellipse_111" data-name="Ellipse 111" cx="1.5" cy="1.5" r="1.5" transform="translate(3 11.289)" fill="#fff"/>
              <circle id="Ellipse_112" data-name="Ellipse 112" cx="1.5" cy="1.5" r="1.5" transform="translate(10 11.289)" fill="#fff"/>
            </g>
          </g>
        </g>
      </g>
      <g id="Component_17_1" data-name="Component 17 – 1" transform="translate(0 188)">
        <line id="Line_8-6" data-name="Line 8" y2="22.222" transform="translate(0 2.5)" fill="none" stroke="#f4af26" stroke-linecap="round" stroke-width="4" opacity="0"/>
        <text id="Post_Trip" data-name="Post Trip" transform="translate(49.889 19)" fill="#fff" font-size="16" font-family="Montserrat-Regular, Montserrat"><tspan x="0" y="0">Post Trip</tspan></text>
        <g id="outline-near_me-24px" transform="translate(11.889)">
          <g id="Bounding_Boxes-6" data-name="Bounding_Boxes">
            <path id="Path_3298" data-name="Path 3298" d="M0,0H24V24H0Z" fill="none"/>
          </g>
          <g id="Outline-6" data-name="Outline" transform="translate(3 3)">
            <path id="Path_3299" data-name="Path 3299" d="M17.27,6.73,13.03,16.86l-1.32-3.42-.32-.83-.82-.32L7.14,10.96,17.27,6.73M21,3,3,10.53v.98l6.84,2.65L12.48,21h.98L21,3Z" transform="translate(-3 -3)" fill="#fff"/>
          </g>
        </g>
      </g>
      <g id="Component_20_1" data-name="Component 20 – 1" transform="translate(0 335)">
        <line id="Line_8-7" data-name="Line 8" y2="22.222" transform="translate(0 1.5)" fill="none" stroke="#f4af26" stroke-linecap="round" stroke-width="4" opacity="0"/>
        <text id="Boost_Packages" data-name="Boost Packages" transform="translate(49.889 18)" fill="#fff" font-size="16" font-family="Montserrat-Regular, Montserrat"><tspan x="0" y="0">Boost Packages</tspan></text>
        <g id="baseline-flight_takeoff-24px" transform="translate(11.889)">
          <g id="Group_2" data-name="Group 2" clip-path="url(#clip-path)">
            <path id="Path_276" data-name="Path 276" d="M2.5,19h19v2H2.5ZM22.07,9.64a1.5,1.5,0,0,0-1.84-1.06L14.92,10,8.02,3.57l-1.93.51,4.14,7.17L5.26,12.58,3.29,11.04l-1.45.39,1.82,3.16.77,1.33,1.6-.43,5.31-1.42,4.35-1.16L21,11.49a1.522,1.522,0,0,0,1.07-1.85Z" fill="#fff"/>
          </g>
          <g id="Group_3" data-name="Group 3" clip-path="url(#clip-path)">
            <path id="Path_278" data-name="Path 278" d="M0,0H24V24H0Z" fill="none"/>
          </g>
        </g>
      </g>
      <g id="Component_22_1" data-name="Component 22 – 1" transform="translate(0 384)">
        <line id="Line_8-8" data-name="Line 8" y2="22.222" transform="translate(0 1.5)" fill="none" stroke="#f4af26" stroke-linecap="round" stroke-width="4" opacity="0"/>
        <text id="Promo" transform="translate(49.889 18)" fill="#fff" font-size="16" font-family="Montserrat-Regular, Montserrat"><tspan x="0" y="0">Promo</tspan></text>
        <g id="baseline-label_important-24px" transform="translate(11.889)">
          <path id="Path_326" data-name="Path 326" d="M0,0H24V24H0Z" fill="none"/>
          <path id="Path_327" data-name="Path 327" d="M3.5,18.99l11,.01a1.994,1.994,0,0,0,1.63-.84L20.5,12,16.13,5.84A1.994,1.994,0,0,0,14.5,5l-11,.01L8.34,12Z" fill="#fff"/>
        </g>
      </g>
      <g id="Component_16_1" data-name="Component 16 – 1" transform="translate(0 139)">
        <line id="Line_8-9" data-name="Line 8" y2="22.222" transform="translate(0 2.5)" fill="none" stroke="#f4af26" stroke-linecap="round" stroke-width="4" opacity="0"/>
        <text id="Home" transform="translate(49.889 19)" fill="#fff" font-size="16" font-family="Montserrat-Regular, Montserrat"><tspan x="0" y="0">Home</tspan></text>
        <g id="home_work-24px" transform="translate(11.889)">
          <path id="Path_6486" data-name="Path 6486" d="M17,15h2v2H17Zm0-4h2v2H17Zm0-4h2V9H17ZM13.74,7,15,7.84V7Z" fill="#fff"/>
          <path id="Path_6487" data-name="Path 6487" d="M10,3V4.51l2,1.33V5h9V19H17v2h6V3Z" fill="#fff"/>
          <path id="Path_6488" data-name="Path 6488" d="M8.17,5.7,15,10.25V21H1V10.48ZM10,19h3V11.16L8.17,8.09,3,11.38V19H6V13h4Z" fill="#fff"/>
          <path id="Path_6489" data-name="Path 6489" d="M0,0H24V24H0Z" fill="none"/>
        </g>
      </g>
      <g id="Component_26_1" data-name="Component 26 – 1" transform="translate(19.889 736)">
        <g id="baseline-input-24px" transform="translate(154)">
          <path id="Path_320" data-name="Path 320" d="M0,0H24V24H0Z" fill="none"/>
          <path id="Path_321" data-name="Path 321" d="M21,3.01H3a2.006,2.006,0,0,0-2,2V9H3V4.99H21V19.02H3V15H1v4.01a1.989,1.989,0,0,0,2,1.98H21a1.989,1.989,0,0,0,2-1.98v-14a2,2,0,0,0-2-2ZM11,16l4-4L11,8v3H1v2H11Z" fill="#fb0000"/>
        </g>
        <text id="Log_Out" data-name="Log Out" transform="translate(0 18)" fill="#fff" font-size="16" font-family="Montserrat-Regular, Montserrat"><tspan x="0" y="0">Log Out</tspan></text>
      </g>
      <g id="LOGO_TRIP" data-name="LOGO TRIP" transform="translate(78.909 -0.036)">
        <path id="Path_6492" data-name="Path 6492" d="M459.376,254.891a.367.367,0,0,0,.015.043,21.076,21.076,0,0,1,.855,8.228,13.793,13.793,0,0,1-4.475,8.954,12.622,12.622,0,0,1-4,2.463,11.287,11.287,0,0,1-4.5.737,10.288,10.288,0,0,1-7.539-3.711,10.956,10.956,0,0,1-2.064-3.828,11.9,11.9,0,0,1-.443-4.614,4.035,4.035,0,0,1,.476-1.5,3.767,3.767,0,0,1,.871-1.076,3.039,3.039,0,0,1,1.013-.58,2.4,2.4,0,0,1,.984-.109,2.119,2.119,0,0,1,.878.283,2.513,2.513,0,0,1,.737.659,2.943,2.943,0,0,1,.494,1.026,3.352,3.352,0,0,1,.08,1.222c.59.623.825-1.159.813-1.546a3.2,3.2,0,0,0-1.582-2.367,3.11,3.11,0,0,0-1.362-.4,3.537,3.537,0,0,0-1.484.221,4.2,4.2,0,0,0-1.378.855,4.775,4.775,0,0,0-1.068,1.434,4.964,4.964,0,0,0-.5,1.869,6.222,6.222,0,0,0-.025.713,12.574,12.574,0,0,0,.676,4.194,11.7,11.7,0,0,0,2.326,3.992,10.986,10.986,0,0,0,8.074,3.707,11.871,11.871,0,0,0,4.663-.87,13.047,13.047,0,0,0,4.058-2.609,14.028,14.028,0,0,0,4.384-9.132,21.389,21.389,0,0,0-.958-8.228.242.242,0,0,0-.015-.043" transform="translate(-411.728 -237.086)" fill="#7eb42f"/>
        <path id="Path_6493" data-name="Path 6493" d="M313.05,119.857a18.527,18.527,0,0,1,.755-2.841c.245-.634,2.384-5.28,3.2-5.121.059.012,3.107-1.256,3.382-1.353a24.906,24.906,0,0,1,9.528-1.493,21.937,21.937,0,0,1,8.951,2.274,21.15,21.15,0,0,1,6.778,5.322,21.518,21.518,0,0,1,4.08,7.463,22.663,22.663,0,0,1,.9,8.8,17.912,17.912,0,0,1-.266,1.812,16.826,16.826,0,0,0,.156-1.819,21.84,21.84,0,0,0-1.435-8.57,20.529,20.529,0,0,0-4.384-6.911,19.764,19.764,0,0,0-6.659-4.578,20.043,20.043,0,0,0-8.242-1.557,20.965,20.965,0,0,0-8.268,1.871,22.165,22.165,0,0,0-6.757,4.734,24.169,24.169,0,0,0-1.719,1.967" transform="translate(-300.5 -105.337)" fill="#8cc834"/>
        <path id="Path_6494" data-name="Path 6494" d="M285.149,151.281c.2-.046.414.193.53.308a29.1,29.1,0,0,0,3.146,3.51,11.639,11.639,0,0,0,3.719,2.169,10.824,10.824,0,0,0,8.278-.461,11.474,11.474,0,0,0,3.342-2.437,11.97,11.97,0,0,0,2.331-3.522,11.779,11.779,0,0,0,.956-4.274,18.056,18.056,0,0,0-1.063-6.866,17.564,17.564,0,0,0-1.365-2.88,17.006,17.006,0,0,0-1.976-2.67,15.823,15.823,0,0,0-11.409-5.212A17.254,17.254,0,0,0,285,130.094a19.485,19.485,0,0,0-5.876,3.556,22.4,22.4,0,0,0-4.61,5.591c-.431.748-2.571,5.461-3.024,5.577-1.159-.511.245-5.685.515-6.513a20.975,20.975,0,0,1,4.381-7.135,21.912,21.912,0,0,1,6.9-5.006,21.242,21.242,0,0,1,8.6-1.986,20.422,20.422,0,0,1,8.568,1.663,20.053,20.053,0,0,1,6.814,4.823,21.055,21.055,0,0,1,2.587,3.461,21.427,21.427,0,0,1,2.925,12.451,16.052,16.052,0,0,1-1.594,6.025,16.412,16.412,0,0,1-3.6,4.873,15.9,15.9,0,0,1-5.073,3.206,14.781,14.781,0,0,1-5.959,1.011,13.1,13.1,0,0,1-5.6-1.47,12,12,0,0,1-4.113-3.478,8.951,8.951,0,0,1-1.916-4.885c.012-.169.029-.5.229-.58" transform="translate(-262.549 -119.012)" fill="#8cc834"/>
        <path id="Path_6495" data-name="Path 6495" d="M303.211,176.708c.321-.271.637-.568.966-.9a11.968,11.968,0,0,0,2.328-3.521,11.778,11.778,0,0,0,.956-4.274,18.057,18.057,0,0,0-1.063-6.866,17.56,17.56,0,0,0-1.365-2.88,17,17,0,0,0-1.976-2.671,15.823,15.823,0,0,0-11.409-5.212,17.271,17.271,0,0,0-6.636,1.147,19.485,19.485,0,0,0-5.876,3.556,23.053,23.053,0,0,0-2.784,2.92,22.208,22.208,0,0,0-3.93,4.963c-.193.337-.734,1.477-1.311,2.641-.311-1.538.684-5.184.906-5.869a20.3,20.3,0,0,1,3.305-5.868,21.706,21.706,0,0,1,5.87-3.981,21.25,21.25,0,0,1,8.6-1.986,20.424,20.424,0,0,1,8.568,1.662,20.08,20.08,0,0,1,6.814,4.823,21.094,21.094,0,0,1,2.587,3.461,21.429,21.429,0,0,1,2.924,12.452,16.06,16.06,0,0,1-1.593,6.025,17.29,17.29,0,0,1-1.678,2.744,15.746,15.746,0,0,1-4.89,3.042,14.781,14.781,0,0,1-5.959,1.011,13.1,13.1,0,0,1-5.6-1.47,13.866,13.866,0,0,1-2.049-1.336,13.1,13.1,0,0,0,1.539.676,10.836,10.836,0,0,0,8.278-.461,11.5,11.5,0,0,0,3.342-2.437,13.293,13.293,0,0,0,1.14-1.392" transform="translate(-262.559 -140.449)" fill="#a2d35a"/>
        <path id="Path_6496" data-name="Path 6496" d="M324.692,224.995c-.117-.125-.037-.373,0-.506a23.606,23.606,0,0,0,1.212-3.7,9.618,9.618,0,0,0,.015-3.555,8.932,8.932,0,0,0-3.746-5.728,9.485,9.485,0,0,0-3.123-1.385,9.878,9.878,0,0,0-3.478-.212,9.725,9.725,0,0,0-3.452,1.08,14.9,14.9,0,0,0-4.47,3.6,14.446,14.446,0,0,0-1.493,2.164,13.988,13.988,0,0,0-1.095,2.512,13.076,13.076,0,0,0,.985,10.311,14.235,14.235,0,0,0,3.559,4.27,16.066,16.066,0,0,0,4.969,2.735,18.516,18.516,0,0,0,5.9.988c.713,0,4.966-.416,5.236-.14.113,1.039-4.165,2.171-4.87,2.319a17.259,17.259,0,0,1-6.911-.187A18.146,18.146,0,0,1,307.5,236.7a17.572,17.572,0,0,1-4.97-5.329,16.848,16.848,0,0,1-2.349-6.813,16.6,16.6,0,0,1,.636-6.865,17.439,17.439,0,0,1,1.407-3.279,17.769,17.769,0,0,1,1.937-2.779,18.026,18.026,0,0,1,5.758-4.455,13.362,13.362,0,0,1,4.967-1.353,13.559,13.559,0,0,1,4.97.561,13.127,13.127,0,0,1,4.387,2.3,12.039,12.039,0,0,1,3.184,3.844,10.814,10.814,0,0,1,1.263,4.615,9.987,9.987,0,0,1-.784,4.376,7.389,7.389,0,0,1-2.705,3.386c-.126.062-.366.184-.509.075" transform="translate(-288.781 -192.736)" fill="#0fa1cb"/>
        <path id="Path_6497" data-name="Path 6497" d="M305.485,144.63c-.343-.006-.7,0-1.041.018a19.518,19.518,0,0,0-7.65,1.926,20.564,20.564,0,0,0-6.142,4.521,20.939,20.939,0,0,0-4.092,6.39,20.359,20.359,0,0,0-1.5,7.565,25.414,25.414,0,0,0,1.9,9.928,23.728,23.728,0,0,0,5.181,7.809,22.715,22.715,0,0,0,7.528,5.024,23.322,23.322,0,0,0,6.778,1.625c6.126.409-2.481.124-6.866-1.462a22.291,22.291,0,0,1-7.553-5.093,23.5,23.5,0,0,1-5.1-7.892,25.221,25.221,0,0,1-1.739-9.938,19.99,19.99,0,0,1,1.619-7.47,20.594,20.594,0,0,1,4.136-6.214,20.005,20.005,0,0,1,6.057-4.3,18.789,18.789,0,0,1,7.4-1.73,18.2,18.2,0,0,1,7.433,1.337,19.66,19.66,0,0,1,2.384,1.178,18.49,18.49,0,0,0-2.281-1.369,18.016,18.016,0,0,0-6.461-1.849" transform="translate(-275.214 -137.487)" fill="#8cc834"/>
        <path id="Path_6498" data-name="Path 6498" d="M428.472,362.238a27.091,27.091,0,0,1-10.338,1.642,31.767,31.767,0,0,1-4.75-.58c-.773,1.408-2.467,1.27-4.185.892q.658.348,1.322.644a30.071,30.071,0,0,0,18.025.23,28.5,28.5,0,0,0,8.834-5.2,29.41,29.41,0,0,0,6.553-8.052,29.018,29.018,0,0,0,3.162-8.85c.08-.447.151-.89.212-1.34a36.165,36.165,0,0,0,.226-7.008,41.4,41.4,0,0,1-.3,4.182c-.062.449-.132.893-.213,1.341a28.973,28.973,0,0,1-3.16,8.845c-.164.29-.328.567-.494.842-.247.41-.5.8-.749,1.186a29.015,29.015,0,0,1-5.314,6.023,28.491,28.491,0,0,1-8.834,5.2" transform="translate(-387.36 -309.122)" fill="#7eb42f" fill-rule="evenodd"/>
        <path id="Path_6499" data-name="Path 6499" d="M383.928,278.562c.716,4.132-1.187-1.342-1.47-3.641a8.052,8.052,0,0,1,.492-3.124,8.6,8.6,0,0,1,1.651-2.73c.019-.032.133-.146.166-.181a9.583,9.583,0,0,1,2.45-1.856c1.613-.826,1.932-1.081-.153-.351a9.035,9.035,0,0,0-3,1.91,9.516,9.516,0,0,0-2.057,2.86,9.287,9.287,0,0,0-.87,3.471,15.387,15.387,0,0,0,.9,6.122,14.7,14.7,0,0,0,3.07,5.017,14.4,14.4,0,0,0,4.8,3.4,14.745,14.745,0,0,0,6.054,1.225,15.573,15.573,0,0,0,6.146-1.308,16.56,16.56,0,0,0,5.059-3.431,16.914,16.914,0,0,0,4.967-10.521,16.5,16.5,0,0,1-5.411,10.119,15.682,15.682,0,0,1-4.979,3,14.287,14.287,0,0,1-5.717.892,12.952,12.952,0,0,1-5.345-1.412,12.662,12.662,0,0,1-4.015-3.248,12.9,12.9,0,0,1-2.377-4.541,14.036,14.036,0,0,1-.368-1.671" transform="translate(-361.999 -247.357)" fill="#8cc834"/>
        <path id="Path_6500" data-name="Path 6500" d="M232.413,80.488c-.024,0-8.322-4.772-9.493-5.217a27.2,27.2,0,0,0-10.058-1.577,26.525,26.525,0,0,0-9.8,2.2,26.021,26.021,0,0,0-8.433,5.906,25.608,25.608,0,0,0-5.112,27.721,25.262,25.262,0,0,0,13.534,13.393,26.541,26.541,0,0,0,4.921,1.468c2.222.473,3.865.747,3.83,3.285-.186,2.863-2.649,2.609-4.936,2.244a30.17,30.17,0,0,1-21.894-18.547,29.879,29.879,0,0,1,.344-22.512A29.255,29.255,0,0,1,192,79.179a28.839,28.839,0,0,1,20.86-8.088,27.867,27.867,0,0,1,10.759,2.469c1.513.741,8.8,5.121,8.8,6.928" transform="translate(-182.96 -71.05)" fill="#0fbbe4"/>
        <path id="Path_6501" data-name="Path 6501" d="M240.8,106.34a28.185,28.185,0,0,0-3.931,1.345,25,25,0,0,0-8.1,5.668,24.57,24.57,0,0,0-4.905,26.6,24.223,24.223,0,0,0,12.987,12.856,25.454,25.454,0,0,0,4.723,1.408c1.362.29,2.5.5,3.13,1.256-.527,1.642-2.378,1.439-4.111,1.159a25.768,25.768,0,0,1-13.257-7.3,25.737,25.737,0,0,1-5.3-28.059,25.234,25.234,0,0,1,5.76-8.33,24.763,24.763,0,0,1,8.488-5.374,26.618,26.618,0,0,1,4.509-1.237" transform="translate(-216.44 -102.898)" fill="#0ad7ef"/>
        <path id="Path_6502" data-name="Path 6502" d="M251.126,127.571a24.91,24.91,0,0,0,1.379,2.823,25.17,25.17,0,0,0,5.88,6.945,27.973,27.973,0,0,0,4.379,2.949,22.854,22.854,0,0,1-10.741-9.613,23.927,23.927,0,0,1-3-8.776,24.771,24.771,0,0,1-.089-5.8A24.173,24.173,0,0,0,252,130.684c1.612,2.717,2.3,3.939-.06.035A24.128,24.128,0,0,1,249,114.437a24.95,24.95,0,0,0-.141,7.484,24.691,24.691,0,0,0,2.964,8.867,25.087,25.087,0,0,0,6.059,7.2c1.185.961,1.282,1.069-.043.055a24.1,24.1,0,0,1-6.151-7.176,20.171,20.171,0,0,1-1.3-2.658,26.734,26.734,0,0,0,1.256,2.681c4.251,7,6.3,10.8-.28.163A24.793,24.793,0,0,1,249,112.163a24.908,24.908,0,0,0,2.331,18.913A25.312,25.312,0,0,0,276.54,143.7a25.671,25.671,0,0,0,16.536-9.148c.052-.064.2-.271.251-.312a25.5,25.5,0,0,0-4.551-36.213,24.884,24.884,0,0,0-9.259-4.364A23.74,23.74,0,0,0,264.894,94.7c-7.845,4.672.054,6.164,1.311,3.865A22.432,22.432,0,0,1,278.24,98.5a21.735,21.735,0,0,1,12.254,8.672c.126.183.421.693.529.811a20.954,20.954,0,0,1,2.534,15.953,21.421,21.421,0,0,1-9.688,13.308,21.8,21.8,0,0,1-16.551,2.6,22.042,22.042,0,0,1-7.986-3.718,22.333,22.333,0,0,1-5.79-6.33,22.647,22.647,0,0,1-3.025-8.107c-.012-.032-.076-.483-.069-.419.011.083.061.36.058.421a23.1,23.1,0,0,0,2.865,8.2c.46.793.542.944-.014.009a22.4,22.4,0,0,1-2.854-8.212c-.019-.058-.045-.341-.055-.421q-.038-.307-.067-.616c.02.226.129.878.12,1.039a23.117,23.117,0,0,0,1.081,4.433c-.216-.606-.391-1.2-.569-1.815,2.2,8.82-.151.8-.826-2.573a17.335,17.335,0,0,1-.193-2.087c.034.71.1,1.383.186,2.087a23.179,23.179,0,0,0,2.834,8.365c1.279,2.189,1.353,2.351-.046.027a22.908,22.908,0,0,1-2.793-15.382c-.015.047-.025.1-.037.145a23.807,23.807,0,0,0-.106,6.867,24.36,24.36,0,0,0,2.766,8.472c1.786,3.172,2.732,4.962-.265.155a20.223,20.223,0,0,1-1.4-2.812m-.986-12.784s.042-.2.038-.143c.019-.127.04-.252.061-.378C250.372,113.52,250.164,114.681,250.147,114.786Zm-1.112.532c-.036.261-.066.522-.1.784C248.969,115.84,249,115.579,249.035,115.319Zm2.126,9.565c0-.016-.2-.755-.151-.575a23.421,23.421,0,0,1-.528-2.615c-.391-3.234-.58-4.713-.006,0a20.587,20.587,0,0,0,.681,3.191Z" transform="translate(-241.822 -90.829)" fill="#f4af26"/>
        <path id="Path_6503" data-name="Path 6503" d="M250.494,147.463l-.012-.053q-.088-.29-.171-.58l.006.032c.057.2.116.4.177.6m.58,2.156q-.148-.459-.277-.929c-.079-.212-.157-.424-.23-.638.056.245.116.483.179.727q.155.415.328.837Zm.1-.261-.026-.1c-.1-.245-.193-.491-.29-.738l.026.1c.094.243.188.488.289.734Zm.341,1.256c-.054-.193-.111-.4-.169-.613-.057-.127-.113-.252-.168-.379.113.352.233.7.362,1.046Zm.318,1.09-.019-.065c-.193-.4-.407-.861-.571-1.235l.037.105c.175.4.357.8.553,1.19Zm.169.307.007.041q.115.223.235.447l.014.022c-.056-.115-.111-.229-.164-.343-.03-.055-.061-.108-.092-.171Zm.848.709c-.056-.108-.111-.217-.164-.326l-.068-.113c-.366-.654-.692-1.285-.983-1.906l.02.086c.279.6.591,1.2.942,1.836Zm-3.814-16.4v-.016h0v.017Zm-.282,5.715v0Zm.2,1.97-.01-.152-.011-.075.008.148Zm6.713,14.543c.126.14.253.278.386.416-.4-.773-1.673-2.942-3.356-5.723q-.135-.26-.261-.515a23.931,23.931,0,0,0,6,6.918c1.325,1.014,1.227.907.043-.054a25.163,25.163,0,0,1-6.059-7.2c-.2-.365-.386-.723-.562-1.075-.031-.141-.068-.3-.109-.477q.362.725.791,1.482c2.107,3.488,1.783,2.884.542.781-.081-.154-.161-.305-.238-.457a24.957,24.957,0,0,0,2.065,2.914,22.353,22.353,0,0,0,4.519,4.473,22.074,22.074,0,0,0,7.986,3.718,21.8,21.8,0,0,0,16.55-2.6,21.418,21.418,0,0,0,9.689-13.307c.128-.575.235-1.127.322-1.664.059-.21.115-.424.171-.643a20.954,20.954,0,0,0-2.534-15.953c-.108-.118-.4-.628-.529-.811a21.736,21.736,0,0,0-12.254-8.672,22.432,22.432,0,0,0-12.035.068c-.7,1.288-3.478,1.389-4.424.412a12.222,12.222,0,0,1,2.618-1.965,23.71,23.71,0,0,1,14.624-1.039,24.878,24.878,0,0,1,9.259,4.364,25.42,25.42,0,0,1,9.737,24.536l-.059.229a25.146,25.146,0,0,1-4.638,9.142c-.046.041-.193.248-.251.312a25.461,25.461,0,0,1-26.584,8.4,25.084,25.084,0,0,1-13.85-9.81l-.235-.416c1.324,2.111,2.186,3.47,2.679,4.215Z" transform="translate(-242.412 -112.434)" fill="#f6be50"/>
        <path id="Path_6504" data-name="Path 6504" d="M315.452,207.626a13.54,13.54,0,0,1,4.971.562,13.1,13.1,0,0,1,4.387,2.3A12.116,12.116,0,0,1,328,214.336c.1.186.181.368.263.548a11.891,11.891,0,0,0-4.07-6.067,13.127,13.127,0,0,0-4.387-2.3,13.558,13.558,0,0,0-4.97-.561,13.184,13.184,0,0,0-4.967,1.353,17.983,17.983,0,0,0-5.758,4.455,17.76,17.76,0,0,0-1.937,2.779,17.443,17.443,0,0,0-1.412,3.27,16.582,16.582,0,0,0-.636,6.865,16.81,16.81,0,0,0,1.261,4.694,18.534,18.534,0,0,1-.638-3.016,16.567,16.567,0,0,1,.636-6.865,17.377,17.377,0,0,1,1.407-3.279,17.675,17.675,0,0,1,1.932-2.779,18.025,18.025,0,0,1,5.758-4.455,13.266,13.266,0,0,1,4.966-1.348" transform="translate(-288.725 -192.853)" fill="#3ec2e7" fill-rule="evenodd"/>
        <path id="Path_6505" data-name="Path 6505" d="M778.58,229.3c-.456.1-.42.7-.057,2.155l1.353,5.421.193,1.081c.029.163.315-.018.461.047a1,1,0,0,1,1.135-.1c.451.207.676.082.676-.37l-1.607-.814a14.1,14.1,0,0,1-.166-2.236c-.02-.418.012-.807.375-.636l2.785,1.31-.187-.749-3.357-2.543c-.348-1.938-1.063-2.4-1.6-2.564" transform="translate(-720.748 -213.978)" fill="#11b3e1" fill-rule="evenodd"/>
      </g>
      <g id="Group_300" data-name="Group 300" transform="translate(21.465 -53.137)">
        <path id="Path_609" data-name="Path 609" d="M72.118,141.724c.649-3.461,2.453-5.662,4.394-5.662,1.695,0,2.266,1.479,2.266,2.885,0,3.462-2.157,7.429-4.928,7.429a3.369,3.369,0,0,1-2.38-.865ZM69.227,157.05l1.443-7.465h.072a7.057,7.057,0,0,0,3.288.721c6.119,0,10.194-5.625,10.194-11.757,0-3.606-1.839-6.672-5.662-6.672a7.117,7.117,0,0,0-5.65,2.958H72.84l.325-2.561H68.506c-.216,1.8-.649,4.725-1.046,6.815L64.07,157.05Zm-6.713-26.974a2.877,2.877,0,0,0,3.065-2.921,2.451,2.451,0,0,0-2.6-2.561,2.954,2.954,0,0,0-2.994,2.957A2.4,2.4,0,0,0,62.513,130.076ZM61.107,149.91l3.354-17.635H59.268L55.914,149.91Zm-13.343,0,1.226-6.563c.649-3.462,2.2-6.42,5.517-6.42a6.037,6.037,0,0,1,.83.037l1.01-5.049a8.746,8.746,0,0,0-.974-.036c-2.416,0-4.4,1.659-5.625,4h-.108c.108-1.226.217-2.416.325-3.607H45.456c-.18,1.515-.4,4.472-.9,7.14L42.57,149.91Zm-17.635,0h5.193l3.715-19.763h6.491l.865-4.544H28.325l-.9,4.544h6.419Z" transform="translate(0 0)" fill="#11b3e1" fill-rule="evenodd"/>
        <path id="Path_610" data-name="Path 610" d="M521.253,142.579c2.092,0,2.777,1.731,2.777,3.354,0,3.029-1.587,7.176-4.437,7.176-1.8,0-2.813-1.371-2.813-3.426-.036-2.741,1.479-7.1,4.472-7.1m.686-3.931c-6.276,0-10.531,5.013-10.531,11.144,0,4.364,2.994,7.284,7.465,7.284,6.131,0,10.531-4.724,10.531-11.179C529.4,141.893,526.663,138.648,521.939,138.648ZM502.645,156.68l1.226-6.563c.65-3.462,2.2-6.42,5.518-6.42a6.019,6.019,0,0,1,.829.037l1.01-5.049a8.746,8.746,0,0,0-.974-.036c-2.416,0-4.4,1.659-5.626,4h-.108c.108-1.226.216-2.416.324-3.607h-4.508c-.18,1.515-.4,4.472-.9,7.14l-1.983,10.495Zm-11.179-12.731c0,1.587-2.02,2.164-6.059,2.128a4.378,4.378,0,0,1,4.147-3.642C490.744,142.435,491.466,143.047,491.466,143.949Zm2.307,7.97a11.09,11.09,0,0,1-4.94,1.118,4.075,4.075,0,0,1-3.39-1.371,3.476,3.476,0,0,1-.541-1.8c7.069.18,11.432-1.443,11.432-5.951,0-3.282-2.561-5.265-6.13-5.265-6.383,0-10.278,5.59-10.278,10.963,0,4.58,2.6,7.429,7.645,7.429a15.128,15.128,0,0,0,6.563-1.37Zm-30.509,4.58a12.318,12.318,0,0,0,3.967.577c5.518,0,8.186-2.488,9.34-8.655l3.066-16.048h-5.194l-2.921,15.4c-.65,3.606-2.091,4.724-4.364,4.724a9.417,9.417,0,0,1-2.922-.433Z" transform="translate(-379.257 -6.769)" fill="#f4af26" fill-rule="evenodd"/>
      </g>
    </g>
    <g id="Component_27_2" data-name="Component 27 – 2" transform="translate(228.889 129)">
      <g id="Bounding_Boxes-7" data-name="Bounding_Boxes" transform="translate(3 304)">
        <path id="Path_2272-2" data-name="Path 2272" d="M0,0H24V24H0Z" fill="none"/>
      </g>
      <g id="Outline-7" data-name="Outline" transform="translate(6 307)">
        <g id="Group_32-2" data-name="Group 32">
          <path id="Path_2273-2" data-name="Path 2273" d="M19,3H5A2.006,2.006,0,0,0,3,5V19a2.006,2.006,0,0,0,2,2H19a2.006,2.006,0,0,0,2-2V5A2.006,2.006,0,0,0,19,3Zm0,16H5V5H19Z" transform="translate(-3 -3)" fill="#fff"/>
          <rect id="Rectangle_11-2" data-name="Rectangle 11" width="2" height="7" transform="translate(4 7)" fill="#fff"/>
          <rect id="Rectangle_12-2" data-name="Rectangle 12" width="2" height="10" transform="translate(8 4)" fill="#fff"/>
          <rect id="Rectangle_13-2" data-name="Rectangle 13" width="2" height="4" transform="translate(12 10)" fill="#fff"/>
        </g>
      </g>
      <g id="Bounding_Boxes-8" data-name="Bounding_Boxes" transform="translate(3 402)">
        <path id="Path_2274-2" data-name="Path 2274" d="M0,0H24V24H0Z" fill="none"/>
      </g>
      <g id="Outline-8" data-name="Outline" transform="translate(6 403)">
        <g id="Group_33-2" data-name="Group 33">
          <rect id="Rectangle_14-2" data-name="Rectangle 14" width="7" height="2" transform="translate(4 14)" fill="#fff"/>
          <rect id="Rectangle_15-2" data-name="Rectangle 15" width="10" height="2" transform="translate(4 10)" fill="#fff"/>
          <rect id="Rectangle_16-2" data-name="Rectangle 16" width="10" height="2" transform="translate(4 6)" fill="#fff"/>
          <path id="Path_2275-2" data-name="Path 2275" d="M19,3H14.82A2.988,2.988,0,0,0,9.18,3H5a1.752,1.752,0,0,0-.4.04A2.021,2.021,0,0,0,3.16,4.23,1.926,1.926,0,0,0,3,5V19a2.052,2.052,0,0,0,.16.78,2.119,2.119,0,0,0,.43.64,2.008,2.008,0,0,0,1.01.55A2.6,2.6,0,0,0,5,21H19a2.006,2.006,0,0,0,2-2V5A2.006,2.006,0,0,0,19,3Zm-7-.25a.75.75,0,1,1-.75.75A.755.755,0,0,1,12,2.75ZM19,19H5V5H19Z" transform="translate(-3 -1)" fill="#fff"/>
        </g>
      </g>
      <g id="Bounding_Boxes-9" data-name="Bounding_Boxes" transform="translate(3 353)">
        <path id="Path_2280-2" data-name="Path 2280" d="M0,0H24V24H0Z" fill="none"/>
      </g>
      <g id="Outline-9" data-name="Outline" transform="translate(6 354)">
        <g id="Group_35-2" data-name="Group 35">
          <rect id="Rectangle_17-2" data-name="Rectangle 17" width="2" height="2" transform="translate(8 14)" fill="#fff"/>
          <rect id="Rectangle_18-2" data-name="Rectangle 18" width="2" height="6" transform="translate(8 6)" fill="#fff"/>
          <path id="Path_2281-2" data-name="Path 2281" d="M19,3H14.82A2.988,2.988,0,0,0,9.18,3H5a1.752,1.752,0,0,0-.4.04A2.021,2.021,0,0,0,3.16,4.23,1.926,1.926,0,0,0,3,5V19a2.052,2.052,0,0,0,.16.78,2.119,2.119,0,0,0,.43.64,2.008,2.008,0,0,0,1.01.55A2.6,2.6,0,0,0,5,21H19a2.006,2.006,0,0,0,2-2V5A2.006,2.006,0,0,0,19,3Zm-7-.25a.75.75,0,1,1-.75.75A.755.755,0,0,1,12,2.75ZM19,19H5V5H19Z" transform="translate(-3 -1)" fill="#fff"/>
        </g>
      </g>
      <g id="Bounding_Boxes-10" data-name="Bounding_Boxes" transform="translate(5 109)">
        <rect id="Rectangle_38-2" data-name="Rectangle 38" width="24" height="24" fill="none"/>
      </g>
      <g id="Outline-10" data-name="Outline" transform="translate(7 111)">
        <g id="Group_68-2" data-name="Group 68">
          <path id="Path_2383-2" data-name="Path 2383" d="M12,2A10,10,0,1,0,22,12,10.029,10.029,0,0,0,12,2Zm0,18a8,8,0,1,1,8-8A8.011,8.011,0,0,1,12,20Z" transform="translate(-2 -2)" fill="#fff"/>
          <rect id="Rectangle_39-2" data-name="Rectangle 39" width="10" height="2" transform="translate(5 13)" fill="#fff"/>
          <path id="Path_2384-2" data-name="Path 2384" d="M10.3,11.2,8.4,9.3,7,10.7,10.3,14,17,7.3,15.6,5.9Z" transform="translate(-2 -2)" fill="#fff"/>
        </g>
      </g>
      <g id="Bounding_Boxes-11" data-name="Bounding_Boxes" transform="translate(5 157)">
        <path id="Path_3189-2" data-name="Path 3189" d="M0,0H24V24H0Z" fill="none"/>
      </g>
      <g id="Outline-11" data-name="Outline" transform="translate(9 159)">
        <g id="Group_299-2" data-name="Group 299">
          <path id="Path_3190-2" data-name="Path 3190" d="M12,2C7.58,2,4,2.5,4,6V16a2.986,2.986,0,0,0,1,2.22V20a1,1,0,0,0,1,1H7a1,1,0,0,0,1-1V19h8v1a1,1,0,0,0,1,1h1a1,1,0,0,0,1-1V18.22A2.986,2.986,0,0,0,20,16V6C20,2.5,16.42,2,12,2Zm5.66,2.99H6.34C6.89,4.46,8.31,4,12,4S17.11,4.46,17.66,4.99Zm.34,2V10H6V6.99Zm-.34,9.74-.29.27H6.63l-.29-.27A.968.968,0,0,1,6,16V12H18v4A.968.968,0,0,1,17.66,16.73Z" transform="translate(-4 -2)" fill="#fff"/>
          <circle id="Ellipse_111-2" data-name="Ellipse 111" cx="1.5" cy="1.5" r="1.5" transform="translate(3 11.289)" fill="#fff"/>
          <circle id="Ellipse_112-2" data-name="Ellipse 112" cx="1.5" cy="1.5" r="1.5" transform="translate(10 11.289)" fill="#fff"/>
        </g>
      </g>
      <g id="Bounding_Boxes-12" data-name="Bounding_Boxes" transform="translate(3 59)">
        <path id="Path_3298-2" data-name="Path 3298" d="M0,0H24V24H0Z" fill="none"/>
      </g>
      <g id="Outline-12" data-name="Outline" transform="translate(6 62)">
        <path id="Path_3299-2" data-name="Path 3299" d="M17.27,6.73,13.03,16.86l-1.32-3.42-.32-.83-.82-.32L7.14,10.96,17.27,6.73M21,3,3,10.53v.98l6.84,2.65L12.48,21h.98L21,3Z" transform="translate(-3 -3)" fill="#fff"/>
      </g>
      <g id="Group_2-2" data-name="Group 2" transform="translate(3 206)" clip-path="url(#clip-path)">
        <path id="Path_276-2" data-name="Path 276" d="M2.5,19h19v2H2.5ZM22.07,9.64a1.5,1.5,0,0,0-1.84-1.06L14.92,10,8.02,3.57l-1.93.51,4.14,7.17L5.26,12.58,3.29,11.04l-1.45.39,1.82,3.16.77,1.33,1.6-.43,5.31-1.42,4.35-1.16L21,11.49a1.522,1.522,0,0,0,1.07-1.85Z" fill="#fff"/>
      </g>
      <g id="Group_3-2" data-name="Group 3" transform="translate(3 206)" clip-path="url(#clip-path)">
        <path id="Path_278-2" data-name="Path 278" d="M0,0H24V24H0Z" fill="none"/>
      </g>
      <path id="Path_326-2" data-name="Path 326" d="M0,0H24V24H0Z" transform="translate(3 255)" fill="none"/>
      <path id="Path_327-2" data-name="Path 327" d="M3.5,18.99l11,.01a1.994,1.994,0,0,0,1.63-.84L20.5,12,16.13,5.84A1.994,1.994,0,0,0,14.5,5l-11,.01L8.34,12Z" transform="translate(3 255)" fill="#fff"/>
      <path id="Path_6486-2" data-name="Path 6486" d="M17,15h2v2H17Zm0-4h2v2H17Zm0-4h2V9H17ZM13.74,7,15,7.84V7Z" transform="translate(-1 -3)" fill="#fbfbfb"/>
      <path id="Path_6487-2" data-name="Path 6487" d="M10,3V4.51l2,1.33V5h9V19H17v2h6V3Z" transform="translate(-1 -3)" fill="#fbfbfb"/>
      <path id="Path_6488-2" data-name="Path 6488" d="M8.17,5.7,15,10.25V21H1V10.48ZM10,19h3V11.16L8.17,8.09,3,11.38V19H6V13h4Z" transform="translate(-1 -3)" fill="#fbfbfb"/>
      <path id="Path_6489-2" data-name="Path 6489" d="M0,0H24V24H0Z" transform="translate(3 10)" fill="none"/>
    </g>
    <g id="LOGO_TRIP-2" data-name="LOGO TRIP" transform="translate(225.909 -0.036)">
      <path id="Path_6492-2" data-name="Path 6492" d="M450.211,254.886a.223.223,0,0,0,.009.026,12.751,12.751,0,0,1,.517,4.978,8.345,8.345,0,0,1-2.708,5.417,7.636,7.636,0,0,1-2.419,1.49,6.828,6.828,0,0,1-2.723.446A6.224,6.224,0,0,1,438.327,265a6.628,6.628,0,0,1-1.249-2.316,7.2,7.2,0,0,1-.268-2.792,2.441,2.441,0,0,1,.288-.9,2.28,2.28,0,0,1,.527-.651,1.839,1.839,0,0,1,.613-.351,1.452,1.452,0,0,1,.6-.066,1.282,1.282,0,0,1,.531.171,1.52,1.52,0,0,1,.446.4,1.78,1.78,0,0,1,.3.621,2.028,2.028,0,0,1,.049.739c.357.377.5-.7.492-.935a1.935,1.935,0,0,0-.957-1.432,1.882,1.882,0,0,0-.824-.244,2.14,2.14,0,0,0-.9.134,2.539,2.539,0,0,0-.834.517,2.888,2.888,0,0,0-.646.867,3,3,0,0,0-.3,1.13,3.77,3.77,0,0,0-.015.431,7.606,7.606,0,0,0,.409,2.537,7.081,7.081,0,0,0,1.407,2.415,6.647,6.647,0,0,0,4.885,2.243,7.181,7.181,0,0,0,2.821-.526,7.893,7.893,0,0,0,2.455-1.578,8.487,8.487,0,0,0,2.652-5.525,12.94,12.94,0,0,0-.579-4.978.146.146,0,0,0-.009-.026" transform="translate(-421.392 -244.1)" fill="#7eb42f"/>
      <path id="Path_6493-2" data-name="Path 6493" d="M313.05,115.584a11.211,11.211,0,0,1,.457-1.719c.148-.383,1.442-3.194,1.934-3.1.036.007,1.88-.76,2.046-.818a15.068,15.068,0,0,1,5.765-.9,13.272,13.272,0,0,1,5.415,1.376,12.8,12.8,0,0,1,4.1,3.22,13.019,13.019,0,0,1,2.468,4.515,13.711,13.711,0,0,1,.547,5.323,10.832,10.832,0,0,1-.161,1.1,10.177,10.177,0,0,0,.094-1.1,13.214,13.214,0,0,0-.868-5.185,12.42,12.42,0,0,0-2.653-4.181,11.957,11.957,0,0,0-4.029-2.77,12.126,12.126,0,0,0-4.987-.942,12.684,12.684,0,0,0-5,1.132,13.41,13.41,0,0,0-4.088,2.864,14.622,14.622,0,0,0-1.04,1.19" transform="translate(-305.465 -106.786)" fill="#8cc834"/>
      <path id="Path_6494-2" data-name="Path 6494" d="M279.576,140.575c.123-.028.251.117.321.186a17.605,17.605,0,0,0,1.9,2.124,7.041,7.041,0,0,0,2.25,1.312,6.549,6.549,0,0,0,5.008-.279,6.942,6.942,0,0,0,2.022-1.474,7.242,7.242,0,0,0,1.41-2.131,7.126,7.126,0,0,0,.578-2.586,10.924,10.924,0,0,0-.643-4.154,10.627,10.627,0,0,0-.826-1.742,10.289,10.289,0,0,0-1.2-1.616,9.573,9.573,0,0,0-6.9-3.153,10.438,10.438,0,0,0-4.015.694,11.789,11.789,0,0,0-3.555,2.151,13.555,13.555,0,0,0-2.789,3.383,25.237,25.237,0,0,1-1.83,3.374c-.7-.309.148-3.439.312-3.94a12.69,12.69,0,0,1,2.65-4.317,13.257,13.257,0,0,1,4.174-3.028,12.852,12.852,0,0,1,5.2-1.2,12.355,12.355,0,0,1,5.184,1.006,12.132,12.132,0,0,1,4.123,2.918,12.738,12.738,0,0,1,1.565,2.094,12.963,12.963,0,0,1,1.769,7.533,9.711,9.711,0,0,1-.964,3.645,9.929,9.929,0,0,1-2.177,2.948,9.619,9.619,0,0,1-3.069,1.939,8.942,8.942,0,0,1-3.605.611,7.926,7.926,0,0,1-3.39-.889,7.261,7.261,0,0,1-2.488-2.1,5.416,5.416,0,0,1-1.159-2.955c.007-.1.018-.3.139-.351" transform="translate(-265.911 -121.038)" fill="#8cc834"/>
      <path id="Path_6495-2" data-name="Path 6495" d="M290.508,165.332c.194-.164.385-.344.585-.545a7.241,7.241,0,0,0,1.409-2.13,7.126,7.126,0,0,0,.578-2.586,10.924,10.924,0,0,0-.643-4.154,10.623,10.623,0,0,0-.826-1.742,10.29,10.29,0,0,0-1.2-1.616,9.573,9.573,0,0,0-6.9-3.153,10.449,10.449,0,0,0-4.015.694,11.788,11.788,0,0,0-3.555,2.151,13.948,13.948,0,0,0-1.684,1.766,13.437,13.437,0,0,0-2.378,3c-.117.2-.444.894-.793,1.6a10.792,10.792,0,0,1,.548-3.55,12.278,12.278,0,0,1,2-3.55,13.132,13.132,0,0,1,3.551-2.408,12.856,12.856,0,0,1,5.2-1.2,12.356,12.356,0,0,1,5.184,1.005,12.148,12.148,0,0,1,4.123,2.918,12.762,12.762,0,0,1,1.565,2.094,12.964,12.964,0,0,1,1.769,7.533,9.716,9.716,0,0,1-.964,3.645,10.462,10.462,0,0,1-1.015,1.66,9.526,9.526,0,0,1-2.958,1.841,8.942,8.942,0,0,1-3.605.611,7.926,7.926,0,0,1-3.39-.889,8.387,8.387,0,0,1-1.24-.808,7.921,7.921,0,0,0,.931.409,6.556,6.556,0,0,0,5.008-.279,6.956,6.956,0,0,0,2.022-1.474,8.044,8.044,0,0,0,.69-.842" transform="translate(-265.922 -143.381)" fill="#a2d35a"/>
      <path id="Path_6496-2" data-name="Path 6496" d="M314.969,217.407c-.071-.075-.022-.226,0-.306a14.284,14.284,0,0,0,.733-2.238,5.819,5.819,0,0,0,.009-2.15,5.4,5.4,0,0,0-2.266-3.466,5.739,5.739,0,0,0-1.889-.838,5.977,5.977,0,0,0-2.1-.128,5.884,5.884,0,0,0-2.089.654,9.012,9.012,0,0,0-2.7,2.176,8.739,8.739,0,0,0-.9,1.309,8.462,8.462,0,0,0-.662,1.52,7.911,7.911,0,0,0,.6,6.238,8.612,8.612,0,0,0,2.153,2.584,9.72,9.72,0,0,0,3.006,1.655,11.2,11.2,0,0,0,3.57.6,20.87,20.87,0,0,1,3.168-.085c.068.628-2.52,1.313-2.946,1.4a10.442,10.442,0,0,1-4.181-.113,10.979,10.979,0,0,1-3.889-1.733,10.631,10.631,0,0,1-3.007-3.224,10.193,10.193,0,0,1-1.421-4.122,10.042,10.042,0,0,1,.385-4.153,10.551,10.551,0,0,1,.851-1.984,10.75,10.75,0,0,1,1.172-1.681,10.905,10.905,0,0,1,3.484-2.7,8.084,8.084,0,0,1,3.005-.818,8.2,8.2,0,0,1,3.007.34,7.942,7.942,0,0,1,2.654,1.394,7.283,7.283,0,0,1,1.926,2.326,6.542,6.542,0,0,1,.764,2.792,6.042,6.042,0,0,1-.475,2.647,4.47,4.47,0,0,1-1.637,2.049c-.076.037-.221.111-.308.046" transform="translate(-293.251 -197.877)" fill="#0fa1cb"/>
      <path id="Path_6497-2" data-name="Path 6497" d="M297.417,144.629c-.208,0-.421,0-.63.011a11.809,11.809,0,0,0-4.628,1.165,12.441,12.441,0,0,0-3.716,2.735,12.668,12.668,0,0,0-2.475,3.866,12.317,12.317,0,0,0-.908,4.577,15.376,15.376,0,0,0,1.152,6.007,14.355,14.355,0,0,0,3.134,4.724,13.743,13.743,0,0,0,4.555,3.04,14.111,14.111,0,0,0,4.1.983c3.706.247-1.5.075-4.154-.884a13.486,13.486,0,0,1-4.569-3.081A14.215,14.215,0,0,1,286.2,163a15.259,15.259,0,0,1-1.052-6.012,12.094,12.094,0,0,1,.98-4.52,12.46,12.46,0,0,1,2.5-3.76,12.1,12.1,0,0,1,3.664-2.6,11.367,11.367,0,0,1,4.477-1.047,11.009,11.009,0,0,1,4.5.809,11.9,11.9,0,0,1,1.442.713,11.189,11.189,0,0,0-1.38-.828,10.9,10.9,0,0,0-3.909-1.119" transform="translate(-279.111 -140.293)" fill="#8cc834"/>
      <path id="Path_6498-2" data-name="Path 6498" d="M420.86,351.329a16.39,16.39,0,0,1-6.254.994,19.221,19.221,0,0,1-2.874-.351c-.468.852-1.492.768-2.532.54q.4.21.8.39a18.193,18.193,0,0,0,10.905.139,17.244,17.244,0,0,0,5.344-3.144,17.792,17.792,0,0,0,3.964-4.871,17.555,17.555,0,0,0,1.913-5.354c.049-.271.091-.538.128-.811a21.879,21.879,0,0,0,.137-4.24,25.041,25.041,0,0,1-.182,2.53c-.037.272-.08.54-.129.811a17.528,17.528,0,0,1-1.912,5.351c-.1.175-.2.343-.3.509-.15.248-.3.486-.453.718a17.555,17.555,0,0,1-3.215,3.644,17.237,17.237,0,0,1-5.344,3.145" transform="translate(-395.995 -319.18)" fill="#7eb42f" fill-rule="evenodd"/>
      <path id="Path_6499-2" data-name="Path 6499" d="M382.821,273.7c.433,2.5-.718-.812-.889-2.2a4.872,4.872,0,0,1,.3-1.89,5.2,5.2,0,0,1,1-1.652c.012-.019.081-.088.1-.109a5.8,5.8,0,0,1,1.482-1.123c.976-.5,1.169-.654-.092-.212a5.465,5.465,0,0,0-1.812,1.156,5.757,5.757,0,0,0-1.244,1.73,5.619,5.619,0,0,0-.526,2.1,9.309,9.309,0,0,0,.546,3.7,8.891,8.891,0,0,0,1.858,3.035,8.709,8.709,0,0,0,2.9,2.056,8.92,8.92,0,0,0,3.663.741,9.421,9.421,0,0,0,3.718-.791,10.018,10.018,0,0,0,3.061-2.076,10.233,10.233,0,0,0,3.005-6.365,9.984,9.984,0,0,1-3.273,6.122,9.487,9.487,0,0,1-3.012,1.817,8.643,8.643,0,0,1-3.459.54,7.836,7.836,0,0,1-3.234-.855,7.66,7.66,0,0,1-2.429-1.965,7.8,7.8,0,0,1-1.438-2.747,8.491,8.491,0,0,1-.223-1.011" transform="translate(-369.562 -254.805)" fill="#8cc834"/>
      <path id="Path_6500-2" data-name="Path 6500" d="M212.871,76.774c-.015,0-5.035-2.887-5.743-3.156a16.456,16.456,0,0,0-6.085-.954A16.047,16.047,0,0,0,195.112,74a15.743,15.743,0,0,0-5.1,3.573,15.493,15.493,0,0,0-3.093,16.771,15.283,15.283,0,0,0,8.188,8.1,16.057,16.057,0,0,0,2.977.888c1.344.286,2.338.452,2.317,1.987-.112,1.732-1.6,1.578-2.986,1.358a18.253,18.253,0,0,1-13.246-11.221,18.077,18.077,0,0,1,.208-13.62,17.7,17.7,0,0,1,4.047-5.854,17.448,17.448,0,0,1,12.62-4.893,16.86,16.86,0,0,1,6.509,1.493c.915.448,5.324,3.1,5.324,4.192" transform="translate(-182.96 -71.05)" fill="#0fbbe4"/>
      <path id="Path_6501-2" data-name="Path 6501" d="M232.586,106.34a17.053,17.053,0,0,0-2.378.814,15.122,15.122,0,0,0-4.9,3.429,14.865,14.865,0,0,0-2.968,16.1,14.655,14.655,0,0,0,7.857,7.778,15.4,15.4,0,0,0,2.857.852,3.309,3.309,0,0,1,1.894.76c-.319.994-1.439.87-2.487.7a15.59,15.59,0,0,1-8.02-4.414,15.571,15.571,0,0,1-3.207-16.975,15.266,15.266,0,0,1,3.485-5.04,14.982,14.982,0,0,1,5.135-3.251,16.1,16.1,0,0,1,2.728-.748" transform="translate(-217.854 -104.244)" fill="#0ad7ef"/>
      <path id="Path_6502-2" data-name="Path 6502" d="M249.93,113.907a15.07,15.07,0,0,0,.834,1.708,15.228,15.228,0,0,0,3.557,4.2,16.923,16.923,0,0,0,2.649,1.784,13.826,13.826,0,0,1-6.5-5.816,14.476,14.476,0,0,1-1.812-5.309,14.987,14.987,0,0,1-.054-3.507,14.625,14.625,0,0,0,1.852,8.823c.975,1.644,1.391,2.383-.036.021a14.6,14.6,0,0,1-1.78-9.851,15.1,15.1,0,0,0-.085,4.528,14.938,14.938,0,0,0,1.793,5.365,15.178,15.178,0,0,0,3.666,4.355c.717.582.776.646-.026.033a14.581,14.581,0,0,1-3.721-4.341,12.2,12.2,0,0,1-.784-1.608,16.176,16.176,0,0,0,.76,1.622c2.572,4.232,3.812,6.537-.17.1a15,15,0,0,1-1.433-11.429,15.069,15.069,0,0,0,1.41,11.442,15.314,15.314,0,0,0,15.252,7.639,15.531,15.531,0,0,0,10-5.534c.032-.039.124-.164.152-.189a15.429,15.429,0,0,0-2.753-21.909,15.055,15.055,0,0,0-5.6-2.64,14.363,14.363,0,0,0-8.847.628c-4.746,2.827.033,3.729.793,2.338a13.572,13.572,0,0,1,7.281-.041,13.15,13.15,0,0,1,7.414,5.247c.076.11.255.419.32.49a12.677,12.677,0,0,1,1.533,9.652,12.96,12.96,0,0,1-5.861,8.051,13.186,13.186,0,0,1-10.014,1.571,13.335,13.335,0,0,1-4.832-2.249,13.511,13.511,0,0,1-3.5-3.83,13.7,13.7,0,0,1-1.83-4.9c-.007-.019-.046-.292-.042-.254s.037.218.035.255a13.974,13.974,0,0,0,1.733,4.964c.278.48.328.571-.008.005a13.55,13.55,0,0,1-1.727-4.969c-.012-.035-.027-.206-.033-.255q-.023-.186-.04-.373c.012.137.078.531.072.628a13.986,13.986,0,0,0,.654,2.682c-.131-.367-.237-.726-.344-1.1,1.332,5.336-.091.485-.5-1.557a10.491,10.491,0,0,1-.117-1.263c.02.43.058.836.112,1.263a14.024,14.024,0,0,0,1.714,5.061c.774,1.325.818,1.422-.028.016a13.86,13.86,0,0,1-1.69-9.306c-.009.029-.015.058-.022.088a14.4,14.4,0,0,0-.064,4.154,14.738,14.738,0,0,0,1.674,5.126c1.081,1.919,1.653,3-.16.094a12.235,12.235,0,0,1-.846-1.7m-.6-7.735s.025-.124.023-.087c.012-.077.024-.153.037-.229C249.473,105.407,249.348,106.109,249.337,106.173Zm-.673.322c-.022.158-.04.316-.058.474C248.625,106.81,248.643,106.652,248.664,106.495Zm1.286,5.787c0-.01-.122-.457-.091-.348a14.17,14.17,0,0,1-.319-1.582c-.237-1.956-.351-2.851,0,0a12.457,12.457,0,0,0,.412,1.931Z" transform="translate(-244.309 -91.664)" fill="#f4af26"/>
      <path id="Path_6503-2" data-name="Path 6503" d="M249.805,135.389l-.007-.032q-.053-.175-.1-.351l0,.019c.034.123.07.245.107.366m.351,1.3q-.089-.278-.168-.562c-.048-.128-.095-.257-.139-.386.034.148.07.292.108.44q.094.251.2.506Zm.058-.158-.016-.058-.175-.447.016.058c.057.147.114.3.175.444Zm.206.76c-.033-.117-.067-.241-.1-.371-.034-.077-.068-.153-.1-.229.068.213.141.424.219.633Zm.192.659-.012-.039c-.117-.241-.246-.521-.345-.747l.022.064c.106.243.216.482.334.72Zm.1.186,0,.025q.07.135.142.271l.008.013c-.034-.07-.067-.139-.1-.208-.018-.033-.037-.065-.056-.1Zm.513.429c-.034-.065-.067-.132-.1-.2l-.041-.068c-.222-.4-.419-.777-.594-1.153l.012.052c.169.362.358.728.57,1.111Zm-2.308-9.921v-.01h0v.011Zm-.171,3.458v0Zm.124,1.192-.006-.092-.006-.046,0,.089Zm4.061,8.8c.076.085.153.168.234.252-.245-.468-1.012-1.78-2.031-3.462q-.082-.157-.158-.312a14.479,14.479,0,0,0,3.628,4.185c.8.613.742.549.026-.033a15.224,15.224,0,0,1-3.666-4.355c-.12-.221-.234-.437-.34-.651-.019-.085-.041-.181-.066-.289q.219.438.479.9c1.275,2.11,1.078,1.745.328.472-.049-.093-.1-.185-.144-.276a15.1,15.1,0,0,0,1.249,1.763A13.523,13.523,0,0,0,255.208,143a13.355,13.355,0,0,0,4.832,2.249,13.189,13.189,0,0,0,10.013-1.572,12.958,12.958,0,0,0,5.862-8.051c.077-.348.142-.682.195-1.007.036-.127.07-.257.1-.389a12.677,12.677,0,0,0-1.533-9.652c-.065-.071-.244-.38-.32-.49a13.15,13.15,0,0,0-7.414-5.247,13.571,13.571,0,0,0-7.281.041,2.006,2.006,0,0,1-2.677.249,7.394,7.394,0,0,1,1.584-1.189,14.344,14.344,0,0,1,8.847-.628,15.051,15.051,0,0,1,5.6,2.64,15.379,15.379,0,0,1,5.891,14.844l-.036.139a15.213,15.213,0,0,1-2.806,5.531c-.028.025-.117.15-.152.189a15.4,15.4,0,0,1-16.083,5.083,15.175,15.175,0,0,1-8.379-5.935l-.142-.252c.8,1.277,1.323,2.1,1.621,2.55Z" transform="translate(-244.923 -114.182)" fill="#f6be50"/>
      <path id="Path_6504-2" data-name="Path 6504" d="M309.355,206.951a8.192,8.192,0,0,1,3.007.34,7.927,7.927,0,0,1,2.654,1.394,7.33,7.33,0,0,1,1.929,2.325c.058.113.109.223.159.331a7.193,7.193,0,0,0-2.462-3.67,7.941,7.941,0,0,0-2.654-1.394,8.2,8.2,0,0,0-3.007-.34,7.976,7.976,0,0,0-3.005.818,10.88,10.88,0,0,0-3.484,2.7,10.74,10.74,0,0,0-1.172,1.681,10.552,10.552,0,0,0-.854,1.978,10.032,10.032,0,0,0-.385,4.153,10.171,10.171,0,0,0,.763,2.84,11.208,11.208,0,0,1-.386-1.825,10.023,10.023,0,0,1,.385-4.153,10.514,10.514,0,0,1,.851-1.984,10.7,10.7,0,0,1,1.169-1.681,10.905,10.905,0,0,1,3.484-2.7,8.026,8.026,0,0,1,3-.815" transform="translate(-293.193 -197.999)" fill="#3ec2e7" fill-rule="evenodd"/>
      <path id="Path_6505-2" data-name="Path 6505" d="M778.448,229.3c-.276.058-.254.423-.035,1.3l.818,3.28.117.654c.017.1.191-.011.279.029a.6.6,0,0,1,.687-.063c.273.125.409.05.409-.224l-.972-.493a8.533,8.533,0,0,1-.1-1.353c-.012-.253.007-.488.227-.385l1.685.793-.113-.453-2.031-1.538c-.21-1.173-.643-1.449-.97-1.551" transform="translate(-743.467 -220.016)" fill="#11b3e1" fill-rule="evenodd"/>
    </g>
  </g>
</svg>
