<svg xmlns="http://www.w3.org/2000/svg" width="38.115" height="35.722" viewBox="0 0 38.115 35.722">
  <g id="LOGO_TRIP" data-name="LOGO TRIP" transform="translate(0.02 -0.036)">
    <path id="Path_6492" data-name="Path 6492" d="M450.211,254.886a.223.223,0,0,0,.009.026,12.751,12.751,0,0,1,.517,4.978,8.345,8.345,0,0,1-2.708,5.417,7.636,7.636,0,0,1-2.419,1.49,6.828,6.828,0,0,1-2.723.446A6.224,6.224,0,0,1,438.327,265a6.628,6.628,0,0,1-1.249-2.316,7.2,7.2,0,0,1-.268-2.792,2.441,2.441,0,0,1,.288-.9,2.28,2.28,0,0,1,.527-.651,1.839,1.839,0,0,1,.613-.351,1.452,1.452,0,0,1,.6-.066,1.282,1.282,0,0,1,.531.171,1.52,1.52,0,0,1,.446.4,1.78,1.78,0,0,1,.3.621,2.028,2.028,0,0,1,.049.739c.357.377.5-.7.492-.935a1.935,1.935,0,0,0-.957-1.432,1.882,1.882,0,0,0-.824-.244,2.14,2.14,0,0,0-.9.134,2.539,2.539,0,0,0-.834.517,2.888,2.888,0,0,0-.646.867,3,3,0,0,0-.3,1.13,3.77,3.77,0,0,0-.015.431,7.606,7.606,0,0,0,.409,2.537,7.081,7.081,0,0,0,1.407,2.415,6.647,6.647,0,0,0,4.885,2.243,7.181,7.181,0,0,0,2.821-.526,7.893,7.893,0,0,0,2.455-1.578,8.487,8.487,0,0,0,2.652-5.525,12.94,12.94,0,0,0-.579-4.978.146.146,0,0,0-.009-.026" transform="translate(-421.392 -244.1)" fill="#7eb42f"/>
    <path id="Path_6493" data-name="Path 6493" d="M313.05,115.584a11.211,11.211,0,0,1,.457-1.719c.148-.383,1.442-3.194,1.934-3.1.036.007,1.88-.76,2.046-.818a15.068,15.068,0,0,1,5.765-.9,13.272,13.272,0,0,1,5.415,1.376,12.8,12.8,0,0,1,4.1,3.22,13.019,13.019,0,0,1,2.468,4.515,13.711,13.711,0,0,1,.547,5.323,10.832,10.832,0,0,1-.161,1.1,10.177,10.177,0,0,0,.094-1.1,13.214,13.214,0,0,0-.868-5.185,12.42,12.42,0,0,0-2.653-4.181,11.957,11.957,0,0,0-4.029-2.77,12.126,12.126,0,0,0-4.987-.942,12.684,12.684,0,0,0-5,1.132,13.41,13.41,0,0,0-4.088,2.864,14.622,14.622,0,0,0-1.04,1.19" transform="translate(-305.465 -106.786)" fill="#8cc834"/>
    <path id="Path_6494" data-name="Path 6494" d="M279.576,140.575c.123-.028.251.117.321.186a17.605,17.605,0,0,0,1.9,2.124,7.041,7.041,0,0,0,2.25,1.312,6.549,6.549,0,0,0,5.008-.279,6.942,6.942,0,0,0,2.022-1.474,7.242,7.242,0,0,0,1.41-2.131,7.126,7.126,0,0,0,.578-2.586,10.924,10.924,0,0,0-.643-4.154,10.627,10.627,0,0,0-.826-1.742,10.289,10.289,0,0,0-1.2-1.616,9.573,9.573,0,0,0-6.9-3.153,10.438,10.438,0,0,0-4.015.694,11.789,11.789,0,0,0-3.555,2.151,13.555,13.555,0,0,0-2.789,3.383,25.237,25.237,0,0,1-1.83,3.374c-.7-.309.148-3.439.312-3.94a12.69,12.69,0,0,1,2.65-4.317,13.257,13.257,0,0,1,4.174-3.028,12.852,12.852,0,0,1,5.2-1.2,12.355,12.355,0,0,1,5.184,1.006,12.132,12.132,0,0,1,4.123,2.918,12.738,12.738,0,0,1,1.565,2.094,12.963,12.963,0,0,1,1.769,7.533,9.711,9.711,0,0,1-.964,3.645,9.929,9.929,0,0,1-2.177,2.948,9.619,9.619,0,0,1-3.069,1.939,8.942,8.942,0,0,1-3.605.611,7.926,7.926,0,0,1-3.39-.889,7.261,7.261,0,0,1-2.488-2.1,5.416,5.416,0,0,1-1.159-2.955c.007-.1.018-.3.139-.351" transform="translate(-265.911 -121.038)" fill="#8cc834"/>
    <path id="Path_6495" data-name="Path 6495" d="M290.508,165.332c.194-.164.385-.344.585-.545a7.241,7.241,0,0,0,1.409-2.13,7.126,7.126,0,0,0,.578-2.586,10.924,10.924,0,0,0-.643-4.154,10.623,10.623,0,0,0-.826-1.742,10.29,10.29,0,0,0-1.2-1.616,9.573,9.573,0,0,0-6.9-3.153,10.449,10.449,0,0,0-4.015.694,11.788,11.788,0,0,0-3.555,2.151,13.948,13.948,0,0,0-1.684,1.766,13.437,13.437,0,0,0-2.378,3c-.117.2-.444.894-.793,1.6a10.792,10.792,0,0,1,.548-3.55,12.278,12.278,0,0,1,2-3.55,13.132,13.132,0,0,1,3.551-2.408,12.856,12.856,0,0,1,5.2-1.2,12.356,12.356,0,0,1,5.184,1.005,12.148,12.148,0,0,1,4.123,2.918,12.762,12.762,0,0,1,1.565,2.094,12.964,12.964,0,0,1,1.769,7.533,9.716,9.716,0,0,1-.964,3.645,10.462,10.462,0,0,1-1.015,1.66,9.526,9.526,0,0,1-2.958,1.841,8.942,8.942,0,0,1-3.605.611,7.926,7.926,0,0,1-3.39-.889,8.387,8.387,0,0,1-1.24-.808,7.921,7.921,0,0,0,.931.409,6.556,6.556,0,0,0,5.008-.279,6.956,6.956,0,0,0,2.022-1.474,8.044,8.044,0,0,0,.69-.842" transform="translate(-265.922 -143.381)" fill="#a2d35a"/>
    <path id="Path_6496" data-name="Path 6496" d="M314.969,217.407c-.071-.075-.022-.226,0-.306a14.284,14.284,0,0,0,.733-2.238,5.819,5.819,0,0,0,.009-2.15,5.4,5.4,0,0,0-2.266-3.466,5.739,5.739,0,0,0-1.889-.838,5.977,5.977,0,0,0-2.1-.128,5.884,5.884,0,0,0-2.089.654,9.012,9.012,0,0,0-2.7,2.176,8.739,8.739,0,0,0-.9,1.309,8.462,8.462,0,0,0-.662,1.52,7.911,7.911,0,0,0,.6,6.238,8.612,8.612,0,0,0,2.153,2.584,9.72,9.72,0,0,0,3.006,1.655,11.2,11.2,0,0,0,3.57.6,20.87,20.87,0,0,1,3.168-.085c.068.628-2.52,1.313-2.946,1.4a10.442,10.442,0,0,1-4.181-.113,10.979,10.979,0,0,1-3.889-1.733,10.631,10.631,0,0,1-3.007-3.224,10.193,10.193,0,0,1-1.421-4.122,10.042,10.042,0,0,1,.385-4.153,10.551,10.551,0,0,1,.851-1.984,10.75,10.75,0,0,1,1.172-1.681,10.905,10.905,0,0,1,3.484-2.7,8.084,8.084,0,0,1,3.005-.818,8.2,8.2,0,0,1,3.007.34,7.942,7.942,0,0,1,2.654,1.394,7.283,7.283,0,0,1,1.926,2.326,6.542,6.542,0,0,1,.764,2.792,6.042,6.042,0,0,1-.475,2.647,4.47,4.47,0,0,1-1.637,2.049c-.076.037-.221.111-.308.046" transform="translate(-293.251 -197.877)" fill="#0fa1cb"/>
    <path id="Path_6497" data-name="Path 6497" d="M297.417,144.629c-.208,0-.421,0-.63.011a11.809,11.809,0,0,0-4.628,1.165,12.441,12.441,0,0,0-3.716,2.735,12.668,12.668,0,0,0-2.475,3.866,12.317,12.317,0,0,0-.908,4.577,15.376,15.376,0,0,0,1.152,6.007,14.355,14.355,0,0,0,3.134,4.724,13.743,13.743,0,0,0,4.555,3.04,14.111,14.111,0,0,0,4.1.983c3.706.247-1.5.075-4.154-.884a13.486,13.486,0,0,1-4.569-3.081A14.215,14.215,0,0,1,286.2,163a15.259,15.259,0,0,1-1.052-6.012,12.094,12.094,0,0,1,.98-4.52,12.46,12.46,0,0,1,2.5-3.76,12.1,12.1,0,0,1,3.664-2.6,11.367,11.367,0,0,1,4.477-1.047,11.009,11.009,0,0,1,4.5.809,11.9,11.9,0,0,1,1.442.713,11.189,11.189,0,0,0-1.38-.828,10.9,10.9,0,0,0-3.909-1.119" transform="translate(-279.111 -140.293)" fill="#8cc834"/>
    <path id="Path_6498" data-name="Path 6498" d="M420.86,351.329a16.39,16.39,0,0,1-6.254.994,19.221,19.221,0,0,1-2.874-.351c-.468.852-1.492.768-2.532.54q.4.21.8.39a18.193,18.193,0,0,0,10.905.139,17.244,17.244,0,0,0,5.344-3.144,17.792,17.792,0,0,0,3.964-4.871,17.555,17.555,0,0,0,1.913-5.354c.049-.271.091-.538.128-.811a21.879,21.879,0,0,0,.137-4.24,25.041,25.041,0,0,1-.182,2.53c-.037.272-.08.54-.129.811a17.528,17.528,0,0,1-1.912,5.351c-.1.175-.2.343-.3.509-.15.248-.3.486-.453.718a17.555,17.555,0,0,1-3.215,3.644,17.237,17.237,0,0,1-5.344,3.145" transform="translate(-395.995 -319.18)" fill="#7eb42f" fill-rule="evenodd"/>
    <path id="Path_6499" data-name="Path 6499" d="M382.821,273.7c.433,2.5-.718-.812-.889-2.2a4.872,4.872,0,0,1,.3-1.89,5.2,5.2,0,0,1,1-1.652c.012-.019.081-.088.1-.109a5.8,5.8,0,0,1,1.482-1.123c.976-.5,1.169-.654-.092-.212a5.465,5.465,0,0,0-1.812,1.156,5.757,5.757,0,0,0-1.244,1.73,5.619,5.619,0,0,0-.526,2.1,9.309,9.309,0,0,0,.546,3.7,8.891,8.891,0,0,0,1.858,3.035,8.709,8.709,0,0,0,2.9,2.056,8.92,8.92,0,0,0,3.663.741,9.421,9.421,0,0,0,3.718-.791,10.018,10.018,0,0,0,3.061-2.076,10.233,10.233,0,0,0,3.005-6.365,9.984,9.984,0,0,1-3.273,6.122,9.487,9.487,0,0,1-3.012,1.817,8.643,8.643,0,0,1-3.459.54,7.836,7.836,0,0,1-3.234-.855,7.66,7.66,0,0,1-2.429-1.965,7.8,7.8,0,0,1-1.438-2.747,8.491,8.491,0,0,1-.223-1.011" transform="translate(-369.562 -254.805)" fill="#8cc834"/>
    <path id="Path_6500" data-name="Path 6500" d="M212.871,76.774c-.015,0-5.035-2.887-5.743-3.156a16.456,16.456,0,0,0-6.085-.954A16.047,16.047,0,0,0,195.112,74a15.743,15.743,0,0,0-5.1,3.573,15.493,15.493,0,0,0-3.093,16.771,15.283,15.283,0,0,0,8.188,8.1,16.057,16.057,0,0,0,2.977.888c1.344.286,2.338.452,2.317,1.987-.112,1.732-1.6,1.578-2.986,1.358a18.253,18.253,0,0,1-13.246-11.221,18.077,18.077,0,0,1,.208-13.62,17.7,17.7,0,0,1,4.047-5.854,17.448,17.448,0,0,1,12.62-4.893,16.86,16.86,0,0,1,6.509,1.493c.915.448,5.324,3.1,5.324,4.192" transform="translate(-182.96 -71.05)" fill="#0fbbe4"/>
    <path id="Path_6501" data-name="Path 6501" d="M232.586,106.34a17.053,17.053,0,0,0-2.378.814,15.122,15.122,0,0,0-4.9,3.429,14.865,14.865,0,0,0-2.968,16.1,14.655,14.655,0,0,0,7.857,7.778,15.4,15.4,0,0,0,2.857.852,3.309,3.309,0,0,1,1.894.76c-.319.994-1.439.87-2.487.7a15.59,15.59,0,0,1-8.02-4.414,15.571,15.571,0,0,1-3.207-16.975,15.266,15.266,0,0,1,3.485-5.04,14.982,14.982,0,0,1,5.135-3.251,16.1,16.1,0,0,1,2.728-.748" transform="translate(-217.854 -104.244)" fill="#0ad7ef"/>
    <path id="Path_6502" data-name="Path 6502" d="M249.93,113.907a15.07,15.07,0,0,0,.834,1.708,15.228,15.228,0,0,0,3.557,4.2,16.923,16.923,0,0,0,2.649,1.784,13.826,13.826,0,0,1-6.5-5.816,14.476,14.476,0,0,1-1.812-5.309,14.987,14.987,0,0,1-.054-3.507,14.625,14.625,0,0,0,1.852,8.823c.975,1.644,1.391,2.383-.036.021a14.6,14.6,0,0,1-1.78-9.851,15.1,15.1,0,0,0-.085,4.528,14.938,14.938,0,0,0,1.793,5.365,15.178,15.178,0,0,0,3.666,4.355c.717.582.776.646-.026.033a14.581,14.581,0,0,1-3.721-4.341,12.2,12.2,0,0,1-.784-1.608,16.176,16.176,0,0,0,.76,1.622c2.572,4.232,3.812,6.537-.17.1a15,15,0,0,1-1.433-11.429,15.069,15.069,0,0,0,1.41,11.442,15.314,15.314,0,0,0,15.252,7.639,15.531,15.531,0,0,0,10-5.534c.032-.039.124-.164.152-.189a15.429,15.429,0,0,0-2.753-21.909,15.055,15.055,0,0,0-5.6-2.64,14.363,14.363,0,0,0-8.847.628c-4.746,2.827.033,3.729.793,2.338a13.572,13.572,0,0,1,7.281-.041,13.15,13.15,0,0,1,7.414,5.247c.076.11.255.419.32.49a12.677,12.677,0,0,1,1.533,9.652,12.96,12.96,0,0,1-5.861,8.051,13.186,13.186,0,0,1-10.014,1.571,13.335,13.335,0,0,1-4.832-2.249,13.511,13.511,0,0,1-3.5-3.83,13.7,13.7,0,0,1-1.83-4.9c-.007-.019-.046-.292-.042-.254s.037.218.035.255a13.974,13.974,0,0,0,1.733,4.964c.278.48.328.571-.008.005a13.55,13.55,0,0,1-1.727-4.969c-.012-.035-.027-.206-.033-.255q-.023-.186-.04-.373c.012.137.078.531.072.628a13.986,13.986,0,0,0,.654,2.682c-.131-.367-.237-.726-.344-1.1,1.332,5.336-.091.485-.5-1.557a10.491,10.491,0,0,1-.117-1.263c.02.43.058.836.112,1.263a14.024,14.024,0,0,0,1.714,5.061c.774,1.325.818,1.422-.028.016a13.86,13.86,0,0,1-1.69-9.306c-.009.029-.015.058-.022.088a14.4,14.4,0,0,0-.064,4.154,14.738,14.738,0,0,0,1.674,5.126c1.081,1.919,1.653,3-.16.094a12.235,12.235,0,0,1-.846-1.7m-.6-7.735s.025-.124.023-.087c.012-.077.024-.153.037-.229C249.473,105.407,249.348,106.109,249.337,106.173Zm-.673.322c-.022.158-.04.316-.058.474C248.625,106.81,248.643,106.652,248.664,106.495Zm1.286,5.787c0-.01-.122-.457-.091-.348a14.17,14.17,0,0,1-.319-1.582c-.237-1.956-.351-2.851,0,0a12.457,12.457,0,0,0,.412,1.931Z" transform="translate(-244.309 -91.664)" fill="#f4af26"/>
    <path id="Path_6503" data-name="Path 6503" d="M249.805,135.389l-.007-.032q-.053-.175-.1-.351l0,.019c.034.123.07.245.107.366m.351,1.3q-.089-.278-.168-.562c-.048-.128-.095-.257-.139-.386.034.148.07.292.108.44q.094.251.2.506Zm.058-.158-.016-.058-.175-.447.016.058c.057.147.114.3.175.444Zm.206.76c-.033-.117-.067-.241-.1-.371-.034-.077-.068-.153-.1-.229.068.213.141.424.219.633Zm.192.659-.012-.039c-.117-.241-.246-.521-.345-.747l.022.064c.106.243.216.482.334.72Zm.1.186,0,.025q.07.135.142.271l.008.013c-.034-.07-.067-.139-.1-.208-.018-.033-.037-.065-.056-.1Zm.513.429c-.034-.065-.067-.132-.1-.2l-.041-.068c-.222-.4-.419-.777-.594-1.153l.012.052c.169.362.358.728.57,1.111Zm-2.308-9.921v-.01h0v.011Zm-.171,3.458v0Zm.124,1.192-.006-.092-.006-.046,0,.089Zm4.061,8.8c.076.085.153.168.234.252-.245-.468-1.012-1.78-2.031-3.462q-.082-.157-.158-.312a14.479,14.479,0,0,0,3.628,4.185c.8.613.742.549.026-.033a15.224,15.224,0,0,1-3.666-4.355c-.12-.221-.234-.437-.34-.651-.019-.085-.041-.181-.066-.289q.219.438.479.9c1.275,2.11,1.078,1.745.328.472-.049-.093-.1-.185-.144-.276a15.1,15.1,0,0,0,1.249,1.763A13.523,13.523,0,0,0,255.208,143a13.355,13.355,0,0,0,4.832,2.249,13.189,13.189,0,0,0,10.013-1.572,12.958,12.958,0,0,0,5.862-8.051c.077-.348.142-.682.195-1.007.036-.127.07-.257.1-.389a12.677,12.677,0,0,0-1.533-9.652c-.065-.071-.244-.38-.32-.49a13.15,13.15,0,0,0-7.414-5.247,13.571,13.571,0,0,0-7.281.041,2.006,2.006,0,0,1-2.677.249,7.394,7.394,0,0,1,1.584-1.189,14.344,14.344,0,0,1,8.847-.628,15.051,15.051,0,0,1,5.6,2.64,15.379,15.379,0,0,1,5.891,14.844l-.036.139a15.213,15.213,0,0,1-2.806,5.531c-.028.025-.117.15-.152.189a15.4,15.4,0,0,1-16.083,5.083,15.175,15.175,0,0,1-8.379-5.935l-.142-.252c.8,1.277,1.323,2.1,1.621,2.55Z" transform="translate(-244.923 -114.182)" fill="#f6be50"/>
    <path id="Path_6504" data-name="Path 6504" d="M309.355,206.951a8.192,8.192,0,0,1,3.007.34,7.927,7.927,0,0,1,2.654,1.394,7.33,7.33,0,0,1,1.929,2.325c.058.113.109.223.159.331a7.193,7.193,0,0,0-2.462-3.67,7.941,7.941,0,0,0-2.654-1.394,8.2,8.2,0,0,0-3.007-.34,7.976,7.976,0,0,0-3.005.818,10.88,10.88,0,0,0-3.484,2.7,10.74,10.74,0,0,0-1.172,1.681,10.552,10.552,0,0,0-.854,1.978,10.032,10.032,0,0,0-.385,4.153,10.171,10.171,0,0,0,.763,2.84,11.208,11.208,0,0,1-.386-1.825,10.023,10.023,0,0,1,.385-4.153,10.514,10.514,0,0,1,.851-1.984,10.7,10.7,0,0,1,1.169-1.681,10.905,10.905,0,0,1,3.484-2.7,8.026,8.026,0,0,1,3-.815" transform="translate(-293.193 -197.999)" fill="#3ec2e7" fill-rule="evenodd"/>
    <path id="Path_6505" data-name="Path 6505" d="M778.448,229.3c-.276.058-.254.423-.035,1.3l.818,3.28.117.654c.017.1.191-.011.279.029a.6.6,0,0,1,.687-.063c.273.125.409.05.409-.224l-.972-.493a8.533,8.533,0,0,1-.1-1.353c-.012-.253.007-.488.227-.385l1.685.793-.113-.453-2.031-1.538c-.21-1.173-.643-1.449-.97-1.551" transform="translate(-743.467 -220.016)" fill="#11b3e1" fill-rule="evenodd"/>
  </g>
</svg>
