<svg id="baseline-alarm_on-24px" xmlns="http://www.w3.org/2000/svg" width="9.576" height="9.576" viewBox="0 0 9.576 9.576">
  <path id="Path_136" data-name="Path 136" d="M0,0H9.576V9.576H0Z" fill="none"/>
  <path id="Path_137" data-name="Path 137" d="M9.98,3.4,8.144,1.86l-.515.61,1.835,1.54ZM4.346,2.47l-.511-.61L2,3.4l.515.61Zm1.644.243A3.591,3.591,0,1,0,9.581,6.3,3.591,3.591,0,0,0,5.99,2.714Zm0,6.384A2.793,2.793,0,1,1,8.783,6.3,2.791,2.791,0,0,1,5.99,9.1ZM5.407,6.915l-.85-.85-.423.423L5.4,7.757,7.8,5.363,7.374,4.94Z" transform="translate(-1.202 -1.118)" fill="#11b3e1"/>
</svg>
