<svg id="outline-where_to_vote-24px" xmlns="http://www.w3.org/2000/svg" width="8.659" height="8.659" viewBox="0 0 8.659 8.659">
  <g id="Bounding_Boxes">
    <path id="Path_2831" data-name="Path 2831" d="M0,0H8.659V8.659H0Z" fill="none"/>
  </g>
  <g id="Outline" transform="translate(1.443 0.361)">
    <g id="Group_209" data-name="Group 209">
      <path id="Path_2832" data-name="Path 2832" d="M6.886,1A2.89,2.89,0,0,0,4,3.886C4,5.9,6.511,8.7,6.619,8.819l.267.3.267-.3C7.262,8.7,9.773,5.9,9.773,3.886A2.89,2.89,0,0,0,6.886,1Zm0,7.025C6.1,7.083,4.722,5.164,4.722,3.886a2.165,2.165,0,0,1,4.33,0C9.051,5.268,7.518,7.263,6.886,8.025Z" transform="translate(-4 -1)" fill="#11b3e1"/>
      <path id="Path_2833" data-name="Path 2833" d="M8.437,8.23,7.8,7.591,7.29,8.1,8.437,9.251l2.168-2.168L10.1,6.57Z" transform="translate(-6.103 -4.56)" fill="#11b3e1"/>
    </g>
  </g>
</svg>
