<svg xmlns="http://www.w3.org/2000/svg" width="14.758" height="14.799" viewBox="0 0 14.758 14.799">
  <g id="Group_212" data-name="Group 212" transform="translate(0 0)">
    <path id="Path_2837" data-name="Path 2837" d="M233.7,408.2v-.042a7.379,7.379,0,0,1,7.3-7.409h0a7.379,7.379,0,0,1,7.46,7.327v.042a7.379,7.379,0,0,1-7.379,7.431h0A7.379,7.379,0,0,1,233.7,408.2Z" transform="translate(-233.702 -400.752)" fill="#1c468e"/>
    <path id="Path_2838" data-name="Path 2838" d="M286.573,416.315H284.36v-1.336a.878.878,0,0,1,.878-.878h1.334v-2.81h-1.556a3.466,3.466,0,0,0-3.466,3.466v1.559h-1.369v2.377h1.369V425.2h2.81v-6.506h2.212Z" transform="translate(-276.246 -410.398)" fill="#fff"/>
  </g>
</svg>
