<svg xmlns="http://www.w3.org/2000/svg" width="14.502" height="14.787" viewBox="0 0 14.502 14.787">
  <g id="Group_211" data-name="Group 211" transform="translate(0 0)">
    <path id="Path_2834" data-name="Path 2834" d="M992.734,663.253l0-.289a7.249,7.249,0,0,1,7.159-7.363h0a7.249,7.249,0,0,1,7.337,7.218v.289a7.249,7.249,0,0,1-7.2,7.279h0A7.249,7.249,0,0,1,992.734,663.253Z" transform="translate(-992.728 -655.6)" fill="#dd4f43"/>
    <g id="Group_210" data-name="Group 210" transform="translate(1.684 3.779)">
      <path id="Path_2835" data-name="Path 2835" d="M1019.682,703.3a.192.192,0,0,0-.189-.164h-3.121a.191.191,0,0,0-.191.191v1.091a.191.191,0,0,0,.191.191h1.445a.19.19,0,0,1,.168.28,2.088,2.088,0,1,1-.627-2.756.191.191,0,0,0,.244-.021l.783-.783a.191.191,0,0,0-.016-.285,3.508,3.508,0,0,0-2.188-.763,3.573,3.573,0,1,0,3.543,3.573A3.64,3.64,0,0,0,1019.682,703.3Z" transform="translate(-1012.638 -700.285)" fill="#fff"/>
      <path id="Path_2836" data-name="Path 2836" d="M1107.164,721.279h-.919a.191.191,0,0,1-.191-.191v-.919a.19.19,0,0,0-.19-.19h-.472a.191.191,0,0,0-.191.19v.919a.191.191,0,0,1-.19.191h-.919a.191.191,0,0,0-.191.191v.472a.191.191,0,0,0,.191.191h.919a.19.19,0,0,1,.19.191v.919a.191.191,0,0,0,.191.191h.472a.19.19,0,0,0,.19-.191v-.919a.191.191,0,0,1,.191-.191h.919a.191.191,0,0,0,.191-.191v-.472A.191.191,0,0,0,1107.164,721.279Z" transform="translate(-1096.184 -718.313)" fill="#fff"/>
    </g>
  </g>
</svg>
