<svg xmlns="http://www.w3.org/2000/svg" width="13.663" height="14.004" viewBox="0 0 13.663 14.004">
  <g id="Group_213" data-name="Group 213" transform="translate(0 0)">
    <path id="Path_2839" data-name="Path 2839" d="M991.806,414.244v-.35a6.827,6.827,0,0,1,6.716-6.806h0a6.827,6.827,0,0,1,6.937,6.681l.007.35a6.827,6.827,0,0,1-6.821,6.972h-.008A6.827,6.827,0,0,1,991.806,414.244Z" transform="translate(-991.806 -407.087)" fill="#55adee"/>
    <path id="Path_2840" data-name="Path 2840" d="M1025.777,445.068a3.488,3.488,0,0,1-1.275.489,1.666,1.666,0,0,0-1.4-.641,2.124,2.124,0,0,0-1.876,1.05,2.275,2.275,0,0,0-.183,1.459,5.687,5.687,0,0,1-4.227-2.117,2.034,2.034,0,0,0,.641,2.678,2.115,2.115,0,0,1-.938-.216,2.127,2.127,0,0,0,1.62,2,1.61,1.61,0,0,1-.89.048,2,2,0,0,0,1.844,1.4,3.66,3.66,0,0,1-2.951.842,5.5,5.5,0,0,0,6.177.094,6.1,6.1,0,0,0,2.739-5.234,3.039,3.039,0,0,0,1-1.034,6.338,6.338,0,0,1-1.13.3S1025.8,445.493,1025.777,445.068Z" transform="translate(-1014.217 -441.914)" fill="#fff"/>
  </g>
</svg>
