<svg xmlns="http://www.w3.org/2000/svg" xmlns:xlink="http://www.w3.org/1999/xlink" width="203" height="203" viewBox="0 0 203 203">
  <defs>
    <filter id="Ellipse_377" x="0" y="0" width="203" height="203" filterUnits="userSpaceOnUse">
      <feOffset dy="3" input="SourceAlpha"/>
      <feGaussianBlur stdDeviation="3" result="blur"/>
      <feFlood flood-opacity="0.161"/>
      <feComposite operator="in" in2="blur"/>
      <feComposite in="SourceGraphic"/>
    </filter>
  </defs>
  <g id="Avaliable_1_Boost_Package" data-name="Avaliable 1 Boost Package" transform="translate(9 6)">
    <g transform="matrix(1, 0, 0, 1, -9, -6)" filter="url(#Ellipse_377)">
      <circle id="Ellipse_377-2" data-name="Ellipse 377" cx="92.5" cy="92.5" r="92.5" transform="translate(9 6)" fill="#cbf7fc"/>
    </g>
    <g id="Group_2241" data-name="Group 2241" transform="translate(42.295 0)">
      <g id="Group_2237" data-name="Group 2237" transform="translate(24.702 17.842)">
        <path id="Path_6596" data-name="Path 6596" d="M305.176,148.836c-21.4,17.363-45.353,5.785-45.353,5.785l-3.227,42.8S326.576,131.478,305.176,148.836Z" transform="translate(-256.462 -145.925)" fill="#0ad7ef"/>
        <path id="Path_6597" data-name="Path 6597" d="M305.117,149.846c-21.4,17.361-45.351,5.785-45.351,5.785l-3.229,42.8S326.515,132.485,305.117,149.846Z" transform="translate(-256.537 -144.646)" fill="#34a3c2"/>
      </g>
      <g id="Group_2238" data-name="Group 2238" transform="translate(66.433 60.571)">
        <path id="Path_6598" data-name="Path 6598" d="M324.529,168.836c-17.361,21.4-5.785,45.351-5.785,45.351l-42.8,3.229S341.888,147.439,324.529,168.836Z" transform="translate(-273.661 -164.768)" fill="#0ad7ef"/>
        <path id="Path_6599" data-name="Path 6599" d="M323.52,168.9c-17.361,21.4-5.785,45.351-5.785,45.351l-42.8,3.229S340.881,147.5,323.52,168.9Z" transform="translate(-274.94 -164.692)" fill="#34a3c2"/>
      </g>
      <path id="Path_6600" data-name="Path 6600" d="M308.039,211.111a5.921,5.921,0,0,1-8.37,0l-38.183-38.183a5.92,5.92,0,0,1,0-8.365h0a5.915,5.915,0,0,1,8.363,0l38.183,38.183a5.916,5.916,0,0,1,0,8.365Z" transform="translate(-227.753 -106.652)" fill="#556566"/>
      <path id="Path_6601" data-name="Path 6601" d="M345.507,146.324a59.262,59.262,0,0,1-4.939-6.907c-15.549,3.386-35.414,10.511-50.4,25.5L260.275,194.8l13.318,13.318,29.892-29.89A205.392,205.392,0,0,1,345.507,146.324Z" transform="translate(-227.097 -136.333)" fill="#e29c20"/>
      <path id="Path_6602" data-name="Path 6602" d="M320.557,199.5c.363-.4.726-.8,1.077-1.2.814-.941,1.6-1.889,2.365-2.855.336-.424.678-.855,1-1.293.39-.5.757-.991,1.12-1.5.342-.467.669-.941,1-1.417.32-.469.658-.948.971-1.429s.635-.959.943-1.444c.333-.515.648-1.032.964-1.544.272-.451.551-.914.816-1.376.161-.27.313-.531.467-.791q.381-.677.762-1.358c1.011-1.823,1.948-3.665,2.819-5.508.188-.424.388-.841.578-1.263.261-.553.512-1.113.748-1.655.2-.451.388-.893.567-1.342q.976-2.306,1.823-4.592.476-1.316.927-2.6.3-.867.567-1.708c.161-.488.322-.977.469-1.465.46-1.454.884-2.889,1.279-4.318.24-.866.456-1.717.678-2.553.408-1.619.78-3.179,1.1-4.717A59.441,59.441,0,0,1,336.8,146.8a205.307,205.307,0,0,1-31.94,42.081l-29.89,29.892,13.223,13.223,29.89-29.892C318.931,201.25,319.766,200.382,320.557,199.5Z" transform="translate(-208.471 -126.978)" fill="#f4af26"/>
      <path id="Path_6603" data-name="Path 6603" d="M347.978,152.291a68.043,68.043,0,0,1-5.436-4.875q-2.425-2.425-4.481-4.953a205.393,205.393,0,0,0-42.022,31.908l-29.892,29.89,20,20,29.89-29.892A205.306,205.306,0,0,0,347.978,152.291Z" transform="translate(-219.652 -132.472)" fill="#c98918"/>
      <path id="Path_6604" data-name="Path 6604" d="M320.171,138.141a1.857,1.857,0,0,0,.209-.079,126.68,126.68,0,0,0-24.7,3.073,59.263,59.263,0,0,0,4.939,6.907A176.287,176.287,0,0,1,320.171,138.141Z" transform="translate(-182.212 -138.051)" fill="#0ad7ef"/>
      <path id="Path_6605" data-name="Path 6605" d="M309.046,162.465c.293-1.32.553-2.594.78-3.848.088-.433.17-.859.234-1.283.209-1.113.386-2.2.553-3.243.116-.751.222-1.474.315-2.177.506-3.578.794-6.631.948-8.971.025-.243.036-.485.045-.717.134-2.03.172-3.44.181-4.025a176.427,176.427,0,0,1-9.869,19.493A59.444,59.444,0,0,0,309.046,162.465Z" transform="translate(-173.907 -137.874)" fill="#42cdf5"/>
      <path id="Path_6606" data-name="Path 6606" d="M306.72,138.148l0-.052c.009-.029,0-.039,0-.039a.062.062,0,0,1-.027.011,1.852,1.852,0,0,1-.209.079Z" transform="translate(-168.522 -138.057)" fill="#d5e5e6"/>
      <path id="Path_6607" data-name="Path 6607" d="M306.665,138.127a.04.04,0,0,1,.009-.027s-.009-.011-.036,0h-.05c0,.057,0,.125,0,.236A1.361,1.361,0,0,1,306.665,138.127Z" transform="translate(-168.391 -138.009)" fill="#d5e5e6"/>
      <path id="Path_6608" data-name="Path 6608" d="M297.861,148q2.061,2.52,4.481,4.953a68.04,68.04,0,0,0,5.436,4.875,176.432,176.432,0,0,0,9.869-19.493c0-.111,0-.179,0-.236h-.238A176.287,176.287,0,0,0,297.861,148Z" transform="translate(-179.451 -138.006)" fill="#3ec1e6"/>
      <path id="Path_6609" data-name="Path 6609" d="M245.644,233.155s25.931-2.524,43.48-20.076l18.32-18.32-23.4-23.4-18.323,18.32C248.172,207.229,245.644,233.155,245.644,233.155Z" transform="translate(-245.644 -95.844)" fill="#e47e30"/>
      <path id="Path_6610" data-name="Path 6610" d="M250.394,217.525s17.763-1.728,29.781-13.753l12.551-12.549-16.032-16.03-12.549,12.549C252.122,199.764,250.394,217.525,250.394,217.525Z" transform="translate(-239.623 -90.983)" fill="#f3aa43"/>
      <path id="Path_6611" data-name="Path 6611" d="M255.824,203.6s11.388-1.107,19.094-8.814l8.048-8.048L272.691,176.46l-8.048,8.046C256.935,192.216,255.824,203.6,255.824,203.6Z" transform="translate(-232.739 -89.375)" fill="#fce2aa"/>
      <path id="Path_6612" data-name="Path 6612" d="M289.565,172.384a15.329,15.329,0,1,1,21.679,0A15.348,15.348,0,0,1,289.565,172.384Zm18.345-18.348a10.617,10.617,0,1,0,0,15.016A10.628,10.628,0,0,0,307.91,154.037Z" transform="translate(-195.65 -127.705)" fill="#556566"/>
      <path id="Path_6613" data-name="Path 6613" d="M306.772,167.914a11.8,11.8,0,1,1,0-16.681A11.8,11.8,0,0,1,306.772,167.914Z" transform="translate(-193.678 -125.733)" fill="#d5e5e6"/>
      <path id="Path_6614" data-name="Path 6614" d="M298.925,157.637a3.9,3.9,0,1,1,0-5.515A3.9,3.9,0,0,1,298.925,157.637Z" transform="translate(-186.54 -121.677)" fill="#fff"/>
      <g id="Group_2239" data-name="Group 2239" transform="translate(30.591 70.787)">
        <path id="Path_6615" data-name="Path 6615" d="M294.593,204.739a5.411,5.411,0,0,1-7.658,0l-26.219-26.216a5.417,5.417,0,1,1,7.662-7.66l26.214,26.216A5.407,5.407,0,0,1,294.593,204.739Z" transform="translate(-259.134 -169.273)" fill="#657576"/>
        <path id="Path_6616" data-name="Path 6616" d="M290,200.149a5.411,5.411,0,0,1-7.658,0l-18-18a5.416,5.416,0,1,1,7.658-7.66l18,18A5.408,5.408,0,0,1,290,200.149Z" transform="translate(-254.545 -164.683)" fill="#95a5a6"/>
        <path id="Path_6617" data-name="Path 6617" d="M281.792,191.938a5.411,5.411,0,0,1-7.658,0l-9.792-9.792a5.416,5.416,0,1,1,7.658-7.66l9.794,9.794A5.407,5.407,0,0,1,281.792,191.938Z" transform="translate(-254.545 -164.683)" fill="#859596"/>
      </g>
      <g id="Group_2240" data-name="Group 2240" transform="translate(31.841 51.164)">
        <path id="Path_6618" data-name="Path 6618" d="M309.264,178.506l-49.578,36.666,36.666-49.578,17.887-4.974Z" transform="translate(-259.685 -160.62)" fill="#3ec1e6"/>
        <path id="Path_6619" data-name="Path 6619" d="M314.238,160.62l-54.552,54.552,36.666-49.578Z" transform="translate(-259.685 -160.62)" fill="#34a3c2"/>
      </g>
    </g>
  </g>
</svg>
