<svg xmlns="http://www.w3.org/2000/svg" width="27.178" height="27.178" viewBox="0 0 27.178 27.178">
  <g id="outline-tram-24px" transform="translate(0)">
    <g id="Bounding_Boxes" transform="translate(0)">
      <path id="Path_3338" data-name="Path 3338" d="M0,0H27.178V27.178H0Z" fill="none"/>
    </g>
    <g id="Outline" transform="translate(5.662 2.265)">
      <g id="Group_338" data-name="Group 338">
        <path id="Path_3339" data-name="Path 3339" d="M14.059,5.4h0l.849-1.7h3.68V2H7.265V3.7h5.379l-.849,1.7C8.25,5.5,5,6.224,5,9.361v9.626a3.388,3.388,0,0,0,2.888,3.341L6.132,24.082v.566H8.4l2.265-2.265h4.53l2.265,2.265h2.265v-.566l-1.755-1.755h0a3.388,3.388,0,0,0,2.888-3.341V9.361C20.854,6.224,17.6,5.5,14.059,5.4ZM11.829,7.662h2.2c3.114.091,4.1.657,4.416,1.132H7.412C7.729,8.319,8.714,7.753,11.829,7.662Zm-.2,12.4H8.1a1.1,1.1,0,0,1-.838-1.076V17.854H11.67a1.684,1.684,0,0,0-.442,1.132A1.656,1.656,0,0,0,11.625,20.062Zm6.964-1.076a1.1,1.1,0,0,1-.838,1.076H14.229a1.656,1.656,0,0,0,.4-1.076,1.684,1.684,0,0,0-.442-1.132h4.405Zm0-3.4H7.265v-4.53H18.589Z" transform="translate(-5 -2)" fill="#11b3e1"/>
      </g>
    </g>
  </g>
</svg>
