<svg xmlns="http://www.w3.org/2000/svg" width="14.722" height="22.088" viewBox="0 0 14.722 22.088">
  <path id="Path_2044" data-name="Path 2044" d="M7.3,5.862a2.266,2.266,0,1,1,3.2,0A2.269,2.269,0,0,1,7.3,5.862Zm14.053,16.6-5.741-5.741H11.728V12.555A10.783,10.783,0,0,0,17.957,15V12.555a7.649,7.649,0,0,1-5.288-2.31L11.083,8.489a2.429,2.429,0,0,0-.781-.566,2.52,2.52,0,0,0-1.087-.26H9.18a2.552,2.552,0,0,0-2.548,2.548v6.511a3.393,3.393,0,0,0,3.4,3.4h5.741l3.964,3.963Z" transform="translate(-6.632 -1.995)" fill="#acacac"/>
</svg>
