<svg id="Outline" xmlns="http://www.w3.org/2000/svg" width="20.384" height="25.14" viewBox="0 0 20.384 25.14">
  <g id="Group_312" data-name="Group 312">
    <path id="Path_3232" data-name="Path 3232" d="M17.2,5.556a1.7,1.7,0,0,0,1.7-1.7C18.9,2.725,17.2.8,17.2.8s-1.7,1.925-1.7,3.058A1.7,1.7,0,0,0,17.2,5.556Z" transform="translate(-1.345 -0.8)" fill="#11b3e1"/>
    <path id="Path_3233" data-name="Path 3233" d="M12.2,5.556a1.7,1.7,0,0,0,1.7-1.7C13.9,2.725,12.2.8,12.2.8s-1.7,1.925-1.7,3.058A1.7,1.7,0,0,0,12.2,5.556Z" transform="translate(-2.007 -0.8)" fill="#11b3e1"/>
    <path id="Path_3234" data-name="Path 3234" d="M7.2,5.556a1.7,1.7,0,0,0,1.7-1.7C8.9,2.725,7.2.8,7.2.8S5.5,2.725,5.5,3.858A1.7,1.7,0,0,0,7.2,5.556Z" transform="translate(-2.669 -0.8)" fill="#11b3e1"/>
    <path id="Path_3235" data-name="Path 3235" d="M21.028,8.144A1.692,1.692,0,0,0,19.42,7H6.964A1.7,1.7,0,0,0,5.355,8.144L3,14.927v9.059a1.136,1.136,0,0,0,1.132,1.132H5.265A1.136,1.136,0,0,0,6.4,23.986V22.854H19.986v1.132a1.136,1.136,0,0,0,1.132,1.132h1.132a1.136,1.136,0,0,0,1.132-1.132V14.927ZM7.36,9.265H19.013l1.178,3.4H6.182ZM21.119,20.589H5.265V15.312l.136-.385H20.994l.125.385Z" transform="translate(-3 0.021)" fill="#11b3e1"/>
    <ellipse id="Ellipse_119" data-name="Ellipse 119" cx="1.936" cy="1.936" rx="1.936" ry="1.936" transform="translate(3.073 15.076)" fill="#11b3e1"/>
    <ellipse id="Ellipse_120" data-name="Ellipse 120" cx="1.291" cy="1.936" rx="1.291" ry="1.936" transform="translate(13.397 15.076)" fill="#11b3e1"/>
  </g>
</svg>
