<svg id="Outline" xmlns="http://www.w3.org/2000/svg" width="20.384" height="24.404" viewBox="0 0 20.384 24.404">
  <g id="Group_320" data-name="Group 320">
    <path id="Path_3263" data-name="Path 3263" d="M12.53,10.059A4.53,4.53,0,1,0,8,5.53,4.528,4.528,0,0,0,12.53,10.059Zm0-6.795A2.265,2.265,0,1,1,10.265,5.53,2.272,2.272,0,0,1,12.53,3.265Z" transform="translate(-2.338 -1)" fill="#11b3e1"/>
    <path id="Path_3264" data-name="Path 3264" d="M13.192,12.02A14.9,14.9,0,0,0,3,8V20.457a14.9,14.9,0,0,1,10.192,4.02,14.947,14.947,0,0,1,10.192-4.02V8A14.9,14.9,0,0,0,13.192,12.02Zm7.927,6.319a17.244,17.244,0,0,0-7.927,3.193,17.212,17.212,0,0,0-7.927-3.2v-7.87a12.66,12.66,0,0,1,6.387,3.2l1.54,1.45,1.54-1.438a12.66,12.66,0,0,1,6.387-3.2Z" transform="translate(-3 -0.073)" fill="#11b3e1"/>
  </g>
</svg>
