<svg id="Outline" xmlns="http://www.w3.org/2000/svg" width="18.119" height="21.516" viewBox="0 0 18.119 21.516">
  <g id="Group_337" data-name="Group 337">
    <ellipse id="Ellipse_128" data-name="Ellipse 128" cx="1.936" cy="1.936" rx="1.936" ry="1.936" transform="translate(3.39 12.891)" fill="#11b3e1"/>
    <ellipse id="Ellipse_129" data-name="Ellipse 129" cx="1.936" cy="1.936" rx="1.936" ry="1.936" transform="translate(11.133 12.891)" fill="#11b3e1"/>
    <path id="Path_3337" data-name="Path 3337" d="M13.059,2C8.53,2,4,2.566,4,6.53V17.288a3.968,3.968,0,0,0,3.963,3.963l-1.7,1.7v.566H8.53l2.265-2.265h4.53l2.265,2.265h2.265V22.95l-1.7-1.7a3.968,3.968,0,0,0,3.964-3.963V6.53C22.119,2.566,17.589,2,13.059,2Zm0,2.265c3.975,0,5.617.544,6.308,1.132H6.752C7.443,4.808,9.085,4.265,13.059,4.265Zm-6.795,3.4h5.662v3.4H6.265Zm13.589,9.626a1.7,1.7,0,0,1-1.7,1.7H7.963a1.7,1.7,0,0,1-1.7-1.7V13.324H19.854Zm0-6.228H14.192v-3.4h5.662Z" transform="translate(-4 -2)" fill="#11b3e1"/>
  </g>
</svg>
