<svg id="Outline" xmlns="http://www.w3.org/2000/svg" width="18.685" height="20.384" viewBox="0 0 18.685 20.384">
  <g id="Group_306" data-name="Group 306">
    <path id="Path_3208" data-name="Path 3208" d="M21.858,7.79l.011-.011L17.657,3.566l-1.2,1.2,2.389,2.389a2.827,2.827,0,0,0,1.008,5.47,2.9,2.9,0,0,0,1.132-.238v8.165a1.132,1.132,0,0,1-2.265,0v-5.1a2.272,2.272,0,0,0-2.265-2.265H15.324V5.265A2.272,2.272,0,0,0,13.059,3H6.265A2.272,2.272,0,0,0,4,5.265V23.384H15.324V14.89h1.7v5.662a2.831,2.831,0,1,0,5.662,0V9.795A2.833,2.833,0,0,0,21.858,7.79Zm-8.8,4.269v9.059H6.265V5.265h6.795Zm6.795-1.132a1.132,1.132,0,1,1,1.132-1.132A1.136,1.136,0,0,1,19.854,10.927Z" transform="translate(-4 -3)" fill="#11b3e1"/>
    <path id="Path_3209" data-name="Path 3209" d="M10.53,6,6,14.493H8.265v5.1l4.53-7.927H10.53Z" transform="translate(-3.735 -2.603)" fill="#11b3e1"/>
  </g>
</svg>
