<svg id="Outline" xmlns="http://www.w3.org/2000/svg" width="17.635" height="15.676" viewBox="0 0 17.635 15.676">
  <g id="Group_300" data-name="Group 300">
    <path id="Path_3192" data-name="Path 3192" d="M18.6,5.99A1.464,1.464,0,0,0,17.206,5H6.429a1.473,1.473,0,0,0-1.391.99L3,11.858V19.7a.983.983,0,0,0,.98.98h.98a.983.983,0,0,0,.98-.98v-.98H17.7v.98a.983.983,0,0,0,.98.98h.98a.983.983,0,0,0,.98-.98V11.858Zm-11.825.97H16.854l1.058,3.047H5.714Zm11.9,9.8H4.959v-4.9H18.676Z" transform="translate(-3 -5)" fill="#11b3e1"/>
    <circle id="Ellipse_113" data-name="Ellipse 113" cx="1.291" cy="1.291" r="1.291" transform="translate(4.15 8.009)" fill="#11b3e1"/>
    <circle id="Ellipse_114" data-name="Ellipse 114" cx="1.291" cy="1.291" r="1.291" transform="translate(11.894 8.009)" fill="#11b3e1"/>
  </g>
</svg>
