<svg id="Group_22" data-name="Group 22" xmlns="http://www.w3.org/2000/svg" width="53" height="57.385" viewBox="0 0 53 57.385">
  <path id="Path_22" data-name="Path 22" d="M154.91,24.025a1.643,1.643,0,0,0,0,2.332l8.741,8.741a1.659,1.659,0,0,0,1.16.488,1.608,1.608,0,0,0,1.16-.488l8.741-8.741a1.649,1.649,0,0,0-2.332-2.332l-5.921,5.921V1.648a1.648,1.648,0,0,0-3.3,0v28.3l-5.921-5.921A1.643,1.643,0,0,0,154.91,24.025Z" transform="translate(-138.311 0)" fill="#fff"/>
  <path id="Path_23" data-name="Path 23" d="M71.24,148.112,65.61,127.885a1.631,1.631,0,0,0-.887-1.035l-.156-.071a1.658,1.658,0,0,0-.671-.143H53.749a1.606,1.606,0,1,0,0,3.213h9.057l4.756,17.11H54.983a1.605,1.605,0,0,0-1.617,1.606v1.452a3.867,3.867,0,0,1-3.882,3.855H39.613a3.867,3.867,0,0,1-3.882-3.855v-1.452a1.605,1.605,0,0,0-1.617-1.606H22.026l4.78-17.145h9.057a1.606,1.606,0,1,0,0-3.213H25.7a1.658,1.658,0,0,0-.671.143l-.156.071a1.6,1.6,0,0,0-.887,1.035L18.36,148.076a1.758,1.758,0,0,0-.06.428v8.436A11.643,11.643,0,0,0,29.969,168.53H59.631A11.643,11.643,0,0,0,71.3,156.941v-8.4A1.236,1.236,0,0,0,71.24,148.112Zm-3.175,8.829a8.418,8.418,0,0,1-8.434,8.376H29.969a8.418,8.418,0,0,1-8.434-8.376v-6.77H32.52a7.1,7.1,0,0,0,7.116,6.9h9.872a7.1,7.1,0,0,0,7.116-6.9H68.089v6.77Z" transform="translate(-18.3 -111.145)" fill="#fff"/>
</svg>
