<svg xmlns="http://www.w3.org/2000/svg" width="8.474" height="11.911" viewBox="0 0 8.474 11.911">
  <g id="Group_640" data-name="Group 640" transform="translate(-47 -194)">
    <path id="Path_6549" data-name="Path 6549" d="M8.237,1A4.242,4.242,0,0,0,4,5.237c0,2.95,3.686,7.065,3.845,7.24l.392.434.392-.434c.159-.175,3.845-4.29,3.845-7.24A4.242,4.242,0,0,0,8.237,1Zm0,10.311c-1.155-1.382-3.178-4.2-3.178-6.075a3.178,3.178,0,1,1,6.355,0C11.414,7.265,9.164,10.194,8.237,11.311Z" transform="translate(43 193)" fill="#fff"/>
    <circle id="Ellipse_123" data-name="Ellipse 123" cx="1.438" cy="1.438" r="1.438" transform="translate(50 197)" fill="#fff"/>
  </g>
</svg>
