<svg id="Component_57_3" data-name="Component 57 – 3" xmlns="http://www.w3.org/2000/svg" width="8.474" height="11.911" viewBox="0 0 8.474 11.911">
  <path id="Path_2832" data-name="Path 2832" d="M8.237,1A4.242,4.242,0,0,0,4,5.237c0,2.95,3.686,7.065,3.845,7.24l.392.434.392-.434c.159-.175,3.845-4.29,3.845-7.24A4.242,4.242,0,0,0,8.237,1Zm0,10.311c-1.155-1.382-3.178-4.2-3.178-6.075a3.178,3.178,0,1,1,6.355,0C11.414,7.265,9.164,10.194,8.237,11.311Z" transform="translate(-4 -1)" fill="#fff"/>
  <path id="Path_2833" data-name="Path 2833" d="M8.974,9.006l-.932-.937-.752.752L8.974,10.5l3.183-3.183L11.41,6.57Z" transform="translate(-5.547 -3.62)" fill="#fff"/>
</svg>
