<svg id="baseline-gps_fixed-24px" xmlns="http://www.w3.org/2000/svg" width="11.5" height="11.5" viewBox="0 0 11.5 11.5">
  <path id="Path_1092" data-name="Path 1092" d="M0,0H11.5V11.5H0Z" fill="none"/>
  <path id="Path_1093" data-name="Path 1093" d="M5.75,4.023A1.727,1.727,0,1,0,7.477,5.75,1.727,1.727,0,0,0,5.75,4.023Zm3.86,1.3A3.884,3.884,0,0,0,6.182,1.89V1H5.318v.89A3.884,3.884,0,0,0,1.89,5.318H1v.864h.89A3.884,3.884,0,0,0,5.318,9.61v.89h.864V9.61A3.884,3.884,0,0,0,9.61,6.182h.89V5.318H9.61ZM5.75,8.773A3.023,3.023,0,1,1,8.773,5.75,3.021,3.021,0,0,1,5.75,8.773Z" fill="#f4af26"/>
</svg>
