<svg id="baseline-gps_not_fixed-24px" xmlns="http://www.w3.org/2000/svg" width="11.5" height="11.5" viewBox="0 0 11.5 11.5">
  <path id="Path_1094" data-name="Path 1094" d="M0,0H11.5V11.5H0Z" fill="none"/>
  <path id="Path_1095" data-name="Path 1095" d="M9.61,5.318A3.884,3.884,0,0,0,6.182,1.89V1H5.318v.89A3.884,3.884,0,0,0,1.89,5.318H1v.864h.89A3.884,3.884,0,0,0,5.318,9.61v.89h.864V9.61A3.884,3.884,0,0,0,9.61,6.182h.89V5.318ZM5.75,8.773A3.023,3.023,0,1,1,8.773,5.75,3.021,3.021,0,0,1,5.75,8.773Z" fill="#11b3e1"/>
</svg>
