<svg id="outline-date_range-24px" xmlns="http://www.w3.org/2000/svg" width="11.5" height="11.5" viewBox="0 0 11.5 11.5">
  <g id="Bounding_Boxes">
    <path id="Path_2319" data-name="Path 2319" d="M0,0H11.5V11.5H0Z" fill="none"/>
  </g>
  <g id="Outline" transform="translate(1.688 1.125)">
    <path id="XMLID_262_" d="M4.806,6.163h.9v.925h-.9ZM11.125,3.85v6.475a.917.917,0,0,1-.9.925H3.9a.914.914,0,0,1-.9-.925L3,3.85a.91.91,0,0,1,.9-.925h.451V2h.9v.925H8.868V2h.9v.925h.451A.917.917,0,0,1,11.125,3.85ZM3.9,4.775h6.319V3.85H3.9Zm6.319,5.55V5.7H3.9v4.625ZM8.417,7.088h.9V6.163h-.9Zm-1.806,0h.9V6.163h-.9Z" transform="translate(-3 -2)" fill="#11b3e1"/>
  </g>
</svg>
