<svg width="44" height="44" viewBox="0 0 44 44" fill="none" xmlns="http://www.w3.org/2000/svg">
<path d="M33.1719 19.7657C34.1211 19.7657 34.8906 18.9962 34.8906 18.047C34.8906 17.0978 34.1211 16.3282 33.1719 16.3282C32.2226 16.3282 31.4531 17.0978 31.4531 18.047C31.4531 18.9962 32.2226 19.7657 33.1719 19.7657Z" fill="#333333"/>
<path d="M37.125 3.43762H34.8906V1.71887C34.8906 0.769606 34.1211 0.00012207 33.1719 0.00012207C32.2226 0.00012207 31.4531 0.769606 31.4531 1.71887V3.43762H23.6328V1.71887C23.6328 0.769606 22.8633 0.00012207 21.9141 0.00012207C20.9648 0.00012207 20.1953 0.769606 20.1953 1.71887V3.43762H12.4609V1.71887C12.4609 0.769606 11.6915 0.00012207 10.7422 0.00012207C9.79292 0.00012207 9.02344 0.769606 9.02344 1.71887V3.43762H6.875C3.08413 3.43762 0 6.52175 0 10.3126V37.1251C0 40.916 3.08413 44.0001 6.875 44.0001H20.0234C20.9727 44.0001 21.7422 43.2306 21.7422 42.2814C21.7422 41.3321 20.9727 40.5626 20.0234 40.5626H6.875C4.97956 40.5626 3.4375 39.0206 3.4375 37.1251V10.3126C3.4375 8.41718 4.97956 6.87512 6.875 6.87512H9.02344V8.59387C9.02344 9.54314 9.79292 10.3126 10.7422 10.3126C11.6915 10.3126 12.4609 9.54314 12.4609 8.59387V6.87512H20.1953V8.59387C20.1953 9.54314 20.9648 10.3126 21.9141 10.3126C22.8633 10.3126 23.6328 9.54314 23.6328 8.59387V6.87512H31.4531V8.59387C31.4531 9.54314 32.2226 10.3126 33.1719 10.3126C34.1211 10.3126 34.8906 9.54314 34.8906 8.59387V6.87512H37.125C39.0204 6.87512 40.5625 8.41718 40.5625 10.3126V20.1095C40.5625 21.0588 41.332 21.8282 42.2812 21.8282C43.2305 21.8282 44 21.0588 44 20.1095V10.3126C44 6.52175 40.9159 3.43762 37.125 3.43762Z" fill="#333333"/>
<path d="M33.6016 23.2032C27.8678 23.2032 23.2031 27.8679 23.2031 33.6017C23.2031 39.3354 27.8678 44.0001 33.6016 44.0001C39.3353 44.0001 44 39.3354 44 33.6017C44 27.8679 39.3353 23.2032 33.6016 23.2032ZM33.6016 40.5626C29.7633 40.5626 26.6406 37.44 26.6406 33.6017C26.6406 29.7634 29.7633 26.6407 33.6016 26.6407C37.4398 26.6407 40.5625 29.7634 40.5625 33.6017C40.5625 37.44 37.4398 40.5626 33.6016 40.5626Z" fill="#333333"/>
<path d="M36.0938 31.8829H35.3203V30.0782C35.3203 29.129 34.5508 28.3595 33.6016 28.3595C32.6523 28.3595 31.8828 29.129 31.8828 30.0782V33.6017C31.8828 34.551 32.6523 35.3204 33.6016 35.3204H36.0938C37.043 35.3204 37.8125 34.551 37.8125 33.6017C37.8125 32.6524 37.043 31.8829 36.0938 31.8829Z" fill="#333333"/>
<path d="M25.6953 19.7657C26.6446 19.7657 27.4141 18.9962 27.4141 18.047C27.4141 17.0978 26.6446 16.3282 25.6953 16.3282C24.7461 16.3282 23.9766 17.0978 23.9766 18.047C23.9766 18.9962 24.7461 19.7657 25.6953 19.7657Z" fill="#333333"/>
<path d="M18.2188 27.2423C19.168 27.2423 19.9375 26.4728 19.9375 25.5236C19.9375 24.5743 19.168 23.8048 18.2188 23.8048C17.2695 23.8048 16.5 24.5743 16.5 25.5236C16.5 26.4728 17.2695 27.2423 18.2188 27.2423Z" fill="#333333"/>
<path d="M10.7422 19.7657C11.6914 19.7657 12.4609 18.9962 12.4609 18.047C12.4609 17.0978 11.6914 16.3282 10.7422 16.3282C9.79295 16.3282 9.02344 17.0978 9.02344 18.047C9.02344 18.9962 9.79295 19.7657 10.7422 19.7657Z" fill="#333333"/>
<path d="M10.7422 27.2423C11.6914 27.2423 12.4609 26.4728 12.4609 25.5236C12.4609 24.5743 11.6914 23.8048 10.7422 23.8048C9.79295 23.8048 9.02344 24.5743 9.02344 25.5236C9.02344 26.4728 9.79295 27.2423 10.7422 27.2423Z" fill="#333333"/>
<path d="M10.7422 34.7189C11.6914 34.7189 12.4609 33.9494 12.4609 33.0001C12.4609 32.0509 11.6914 31.2814 10.7422 31.2814C9.79295 31.2814 9.02344 32.0509 9.02344 33.0001C9.02344 33.9494 9.79295 34.7189 10.7422 34.7189Z" fill="#333333"/>
<path d="M18.2188 34.7189C19.168 34.7189 19.9375 33.9494 19.9375 33.0001C19.9375 32.0509 19.168 31.2814 18.2188 31.2814C17.2695 31.2814 16.5 32.0509 16.5 33.0001C16.5 33.9494 17.2695 34.7189 18.2188 34.7189Z" fill="#333333"/>
<path d="M18.2188 19.7657C19.168 19.7657 19.9375 18.9962 19.9375 18.047C19.9375 17.0978 19.168 16.3282 18.2188 16.3282C17.2695 16.3282 16.5 17.0978 16.5 18.047C16.5 18.9962 17.2695 19.7657 18.2188 19.7657Z" fill="#333333"/>
</svg>
