<svg width="44" height="44" viewBox="0 0 44 44" fill="none" xmlns="http://www.w3.org/2000/svg">
<path d="M26.4449 40.0767C26.0808 40.1675 25.714 40.247 25.345 40.3151C24.3851 40.4935 23.7506 41.4167 23.9281 42.3774C24.0119 42.8317 24.2707 43.235 24.6487 43.5007C24.8412 43.6367 25.059 43.7327 25.2893 43.783C25.5196 43.8334 25.7577 43.837 25.9894 43.7938C26.429 43.7123 26.866 43.6174 27.2998 43.5093C28.2476 43.2734 28.825 42.3132 28.5886 41.3658C28.3527 40.4176 27.3933 39.8406 26.4449 40.0767ZM39.5256 16.3675C39.6442 16.7269 39.8754 17.0385 40.1848 17.2564C40.6278 17.5685 41.2076 17.6735 41.7608 17.4905C42.6883 17.1826 43.1908 16.1824 42.884 15.2554C42.7434 14.8311 42.59 14.4111 42.4238 13.9961C42.061 13.089 41.0321 12.6474 40.1246 13.0103C39.218 13.3729 38.7762 14.4021 39.1393 15.3094C39.2788 15.6581 39.4076 16.011 39.5256 16.3675ZM32.1927 37.5512C31.8793 37.7583 31.5596 37.9558 31.2342 38.1434C30.3878 38.6317 30.0979 39.7136 30.5859 40.5597C30.7138 40.782 30.8886 40.9738 31.0982 41.1217C31.6438 41.5056 32.3849 41.5631 33.0019 41.2077C33.3892 40.9843 33.7697 40.7493 34.1428 40.5028C34.9575 39.9645 35.1818 38.8671 34.6432 38.0519C34.1047 37.2365 33.0077 37.0126 32.1927 37.5512ZM43.9838 21.3079C43.9453 20.3316 43.123 19.5717 42.1464 19.6098C41.171 19.6483 40.4106 20.4709 40.4489 21.4468C40.4636 21.8199 40.4673 22.1987 40.4587 22.5714C40.445 23.1837 40.7445 23.7294 41.2098 24.0574C41.4967 24.2596 41.8374 24.3716 42.1883 24.3791C43.1646 24.4008 43.9737 23.6264 43.9953 22.6496C44.0051 22.2042 44.0014 21.753 43.9838 21.3079ZM39.2369 32.8979C38.454 32.3106 37.3464 32.47 36.7601 33.2515C36.5347 33.5517 36.3002 33.845 36.057 34.131C35.4242 34.8744 35.5136 35.991 36.257 36.6243C36.2994 36.6602 36.3422 36.6932 36.3867 36.7243C37.1258 37.2453 38.153 37.1256 38.7505 36.4243C39.041 36.083 39.3209 35.7328 39.5899 35.3743C40.1763 34.5928 40.0176 33.4845 39.2369 32.8979ZM41.837 26.5038C40.9049 26.2115 39.9122 26.7304 39.6201 27.6625C39.5077 28.0209 39.3845 28.3759 39.2507 28.7269C38.957 29.4983 39.2384 30.3471 39.8835 30.802C40.0043 30.8871 40.1355 30.9567 40.2737 31.0091C41.1864 31.3574 42.2084 30.8995 42.5562 29.9865C42.7151 29.569 42.8617 29.1469 42.9957 28.7207C43.2875 27.7884 42.769 26.796 41.837 26.5038ZM18.7276 40.331C17.1588 40.0503 15.6335 39.5656 14.1906 38.8891C14.1735 38.8802 14.1583 38.8701 14.1404 38.862C13.8004 38.7021 13.4651 38.5323 13.135 38.3529C13.1339 38.3516 13.1318 38.3507 13.13 38.35C12.5236 38.0159 11.9361 37.6488 11.3701 37.2502C3.04937 31.3888 1.04872 19.8506 6.91049 11.5299C8.18511 9.72127 9.72759 8.21237 11.4472 7.01644C11.4684 7.00169 11.4896 6.98702 11.5106 6.97217C17.5703 2.79684 25.7985 2.51545 32.233 6.80599L30.851 8.80276C30.4668 9.35854 30.7032 9.76355 31.3758 9.70302L37.3788 9.16559C38.0522 9.10505 38.455 8.52251 38.2738 7.87215L36.6618 2.0641C36.4814 1.41298 36.0193 1.33504 35.6347 1.89072L34.2495 3.89222C29.5275 0.722416 23.8639 -0.486278 18.2425 0.488509C17.6797 0.586146 17.121 0.705411 16.5675 0.846038C16.5632 0.846795 16.5598 0.847268 16.5564 0.848024C16.5351 0.853226 16.5135 0.860131 16.4928 0.865901C11.6454 2.11073 7.41604 4.93795 4.39814 8.97178C4.3727 9.00196 4.3465 9.03147 4.32247 9.06429C4.22165 9.20032 4.12248 9.33757 4.025 9.47601C3.8649 9.7034 3.70918 9.93385 3.55795 10.1672C3.53912 10.1952 3.52475 10.2237 3.50829 10.252C1.01788 14.1111 -0.18334 18.5727 0.0226644 23.1148C0.0231373 23.1297 0.0222861 23.1448 0.0226644 23.1601C0.0431041 23.6065 0.0774233 24.0522 0.125572 24.4965C0.128126 24.5251 0.134463 24.5521 0.139287 24.5807C0.188467 25.0285 0.25149 25.4747 0.328267 25.9186C1.11748 30.4717 3.2653 34.5688 6.48373 37.7567C6.4912 37.7642 6.49895 37.7724 6.50652 37.7801C6.50917 37.783 6.5121 37.7846 6.51465 37.7873C7.38759 38.6485 8.33011 39.4361 9.33261 40.1423C11.9829 42.0097 14.934 43.2442 18.1033 43.8129C19.065 43.9857 19.9836 43.3456 20.1561 42.3844C20.3285 41.4226 19.6889 40.5032 18.7276 40.331Z" fill="#333333"/>
<path d="M20.9141 7.8692C20.1231 7.8692 19.4824 8.51048 19.4824 9.30036V23.5587L32.5228 30.2998C32.7254 30.4049 32.9503 30.4597 33.1785 30.4596C33.6965 30.4596 34.1967 30.1776 34.4511 29.6855C34.8138 28.9831 34.5393 28.1202 33.8369 27.7575L22.3443 21.8159V9.30036C22.3442 8.51048 21.7042 7.8692 20.9141 7.8692Z" fill="#333333"/>
</svg>
