<svg width="46" height="46" viewBox="0 0 46 46" fill="none" xmlns="http://www.w3.org/2000/svg">
<path d="M16.6156 13.0666C16.6156 9.54601 19.4832 6.67845 23.0037 6.67845C26.5243 6.67845 29.3919 9.54601 29.3919 13.0666C29.3968 14.4305 28.9625 15.7599 28.1533 16.8579C27.3442 17.956 26.2031 18.7644 24.8989 19.1637L25.3177 20.5194C28.604 19.5044 30.8185 16.5091 30.8185 13.0595C30.8185 8.75104 27.3193 5.25177 23.0108 5.25177C18.7024 5.25177 15.2031 8.75104 15.2031 13.0595C15.2031 16.502 17.4106 19.5044 20.704 20.5194L21.1228 19.1637C19.8178 18.7656 18.676 17.9575 17.8666 16.8592C17.0573 15.7608 16.6236 14.4309 16.6298 13.0666H16.6156Z" fill="#333333" stroke="#333333" stroke-width="0.5"/>
<path d="M22.293 20.1644H23.7126V21.584H22.293V20.1644Z" fill="#333333" stroke="#333333" stroke-width="0.5"/>
<path d="M44.4393 22.3081L34.9848 20.42C35.9076 18.1274 36.4896 16.0548 36.4896 14.4862C36.4896 7.04755 30.4422 1.00012 23.0035 1.00012C15.5649 1.00012 9.5175 7.04755 9.5175 14.4862C9.5175 16.2677 10.277 18.7094 11.4268 21.3853L1.85175 19.4689C1.64591 19.4263 1.42588 19.4831 1.26262 19.618C1.09937 19.7528 1 19.9516 1 20.1645V41.4583C1 41.799 1.24133 42.09 1.56783 42.1539L15.7637 44.993C15.8559 45.0143 15.9482 45.0143 16.0405 44.993L30.0944 42.1822L44.1483 44.993C44.1979 45.0001 44.2405 45.0072 44.2902 45.0072C44.4535 45.0072 44.6096 44.9504 44.7374 44.844C44.9006 44.7091 45 44.5104 45 44.2974V23.0037C45 22.663 44.7587 22.372 44.4322 22.3081H44.4393ZM10.9371 14.4862C10.9371 7.83542 16.3528 2.41971 23.0035 2.41971C29.6543 2.41971 35.07 7.83542 35.07 14.4862C35.07 20.3916 25.4949 35.063 23.0035 38.7752C20.5122 35.063 10.9371 20.3987 10.9371 14.4862ZM2.41958 21.0304L12.1366 22.9753C13.6485 26.2119 15.5933 29.6544 17.3962 32.6285L15.9056 32.9266L2.41958 30.2294V21.0304ZM43.5875 43.4315L30.2434 40.7627C30.1524 40.7414 30.0577 40.7414 29.9666 40.7627L15.9127 43.5734L2.42668 40.8762V31.6773L15.7708 34.3461C15.8134 34.3532 15.863 34.3603 15.9127 34.3603C15.9624 34.3603 16.005 34.3603 16.0547 34.3461L18.1983 33.9203C20.4128 37.5118 22.237 40.1593 22.4357 40.4433C22.5008 40.5374 22.5878 40.6143 22.6892 40.6675C22.7905 40.7206 22.9033 40.7484 23.0177 40.7484C23.1322 40.7484 23.245 40.7206 23.3463 40.6675C23.4477 40.6143 23.5347 40.5374 23.5998 40.4433C23.834 40.1026 26.3893 36.3903 29.1645 31.727L30.1157 31.5354L43.6017 34.2326V43.4315H43.5875ZM43.5875 32.7846L30.2434 30.1158C30.1937 30.1087 30.1512 30.1158 30.1015 30.1158C31.6772 27.3973 33.2387 24.4658 34.4241 21.7544L43.5875 23.5857V32.7846Z" fill="#333333" stroke="#333333" stroke-width="0.5"/>
</svg>
