<svg width="60" height="60" viewBox="0 0 60 60" fill="none" xmlns="http://www.w3.org/2000/svg">
<g id="Group 1410080673">
<circle id="Base" cx="30" cy="30" r="27" fill="#00A991" stroke="#00A991" stroke-opacity="0.5" stroke-width="5"/>
<path id="Vector" d="M43.6612 22.486C39.7932 18.2149 35.9039 18.7021 32.1428 19.173C28.4993 19.6292 25.0557 20.0598 21.5567 16.2924V15.3585C21.5567 13.5486 18.7433 13.5457 18.7433 15.3585V17.1382C18.7433 17.744 19.6805 17.744 19.6805 17.1382V15.3585C19.6805 14.7516 20.6195 14.7516 20.6195 15.3585L20.6162 35.2682H19.6805V19.6671C19.6805 19.0613 18.7433 19.0613 18.7433 19.6671V35.2682H18.1951C16.9847 35.2682 16 36.2529 16 37.4633V39.6812C16.0004 39.9822 16.0626 40.2799 16.1826 40.5559C16.3026 40.832 16.4779 41.0805 16.6977 41.2861L18.3055 42.7862C18.4342 42.9065 18.5363 43.0524 18.6052 43.2147C18.674 43.3769 18.708 43.5517 18.7051 43.7279L18.705 43.7362V45.4715C18.705 45.5958 18.7544 45.7149 18.8422 45.8028C18.9301 45.8907 19.0493 45.9401 19.1736 45.9401H24.5578C24.897 45.9401 25.1085 45.5971 24.9951 45.3029L24.0605 42.8806V35.8195C24.0605 34.6092 23.0758 33.6244 21.8654 33.6244H21.5568V29.8596C22.323 30.165 23.0864 30.3005 23.8468 30.3004C26.7762 30.3002 29.6583 28.2992 32.4683 26.3479C33.1642 25.8647 33.8839 25.365 34.5885 24.9075C35.0967 24.5776 34.5864 23.7916 34.0782 24.1215C33.3613 24.5868 32.6356 25.0908 31.9338 25.5781C28.3332 28.0784 24.9273 30.4431 21.5568 28.8375V17.6216C25.1549 20.9922 28.7626 20.5407 32.2593 20.1029C35.4172 19.7074 38.4248 19.3308 41.4484 21.6902C39.8956 21.4665 38.2118 21.8421 36.2887 22.8234C35.749 23.0988 36.1749 23.9333 36.7146 23.6581C39.2664 22.356 41.2336 22.2189 43.0928 23.2137C43.5448 23.4551 44.0054 22.866 43.6612 22.486ZM23.5668 44.2048L23.8748 45.0029H19.6422V44.2048H23.5668ZM21.8653 34.5616C22.559 34.5616 23.1233 35.1258 23.1233 35.8195V42.9678C23.1233 43.0255 23.1339 43.0827 23.1547 43.1365L23.2053 43.2676H19.5977C19.5064 42.8204 19.2782 42.4126 18.9447 42.1009L17.3369 40.6008C17.2109 40.483 17.1105 40.3406 17.0417 40.1824C16.973 40.0242 16.9374 39.8536 16.9371 39.6811V37.4632C16.9371 36.7696 17.5014 36.2053 18.1951 36.2053H21.0881C21.1499 36.2053 21.2111 36.1931 21.2682 36.1693C21.3252 36.1456 21.377 36.1108 21.4206 36.0669C21.4642 36.023 21.4986 35.971 21.5219 35.9137C21.5453 35.8565 21.5571 35.7952 21.5566 35.7334L21.5561 35.6628C21.5562 35.6595 21.5566 35.6562 21.5566 35.6528V34.5615L21.8653 34.5616Z" fill="white"/>
</g>
</svg>
