<svg width="60" height="60" viewBox="0 0 60 60" fill="none" xmlns="http://www.w3.org/2000/svg">
<g id="Group 1410080673">
<circle id="Base" cx="30" cy="30" r="27" fill="#00A991" stroke="#00A991" stroke-opacity="0.5" stroke-width="5"/>
<g id="Group">
<g id="Mask group">
<mask id="mask0_221_6427" style="mask-type:luminance" maskUnits="userSpaceOnUse" x="14" y="14" width="33" height="33">
<g id="Group_2">
<path id="Vector" d="M46.4004 14.5996V46.4004H14.5996V14.5996H46.4004Z" fill="white" stroke="white" stroke-width="1.2"/>
</g>
</mask>
<g mask="url(#mask0_221_6427)">
<g id="Group_3">
<g id="Clip path group">
<mask id="mask1_221_6427" style="mask-type:luminance" maskUnits="userSpaceOnUse" x="14" y="14" width="33" height="34">
<g id="b">
<path id="Vector_2" d="M46.4004 46.4005V14.5997H14.5996V46.4005H46.4004Z" fill="white" stroke="white" stroke-width="1.2"/>
</g>
</mask>
<g mask="url(#mask1_221_6427)">
<g id="Group_4">
<path id="Vector_3" d="M38.283 39.6578C38.3086 38.8674 37.6694 38.2111 36.8828 38.2111H36.88V38.2106L36.9969 38.2105C37.7604 38.21 38.3787 37.5904 38.3783 36.8271C38.3776 36.0634 37.7582 35.449 36.9948 35.4496H31.2431C31.0828 35.4496 30.9693 35.293 31.0192 35.1407L31.5233 33.6019C31.9523 32.2923 31.876 31.4005 31.876 29.8667C31.876 28.9645 31.1446 28.2331 30.2424 28.2331C29.4228 28.2331 28.7301 28.8404 28.6228 29.6529C28.504 30.5518 28.4241 32.1504 26.9379 33.5815L25.889 34.5915C25.3046 35.1541 24.525 35.4685 23.7138 35.4684H22.6582V44.5363L23.4644 44.5361C25.4671 44.5348 25.284 46.5181 27.7745 46.5157H36.2513C37.0138 46.5157 37.632 45.8976 37.632 45.135V45.135C37.632 44.3724 37.0138 43.7543 36.2513 43.7543H36.4944C37.2449 43.7543 37.8855 43.1708 37.9105 42.4208C37.9366 41.6367 37.3088 40.9928 36.5306 40.9928H36.8664C37.6175 40.9928 38.2588 40.4085 38.283 39.6578Z" stroke="white" stroke-width="1.2" stroke-miterlimit="10" stroke-linecap="round" stroke-linejoin="round"/>
<path id="Vector_4" d="M36.3773 43.7548H34.6836" stroke="white" stroke-width="1.2" stroke-miterlimit="10" stroke-linecap="round" stroke-linejoin="round"/>
<path id="Vector_5" d="M36.4134 40.9933H34.6836" stroke="white" stroke-width="1.2" stroke-miterlimit="10" stroke-linecap="round" stroke-linejoin="round"/>
<path id="Vector_6" d="M36.8797 38.2111H34.6836" stroke="white" stroke-width="1.2" stroke-miterlimit="10" stroke-linecap="round" stroke-linejoin="round"/>
<path id="Vector_7" d="M44.9026 21.9642C45.0936 21.7779 44.9882 21.4534 44.7241 21.415L42.6845 21.1186C42.6328 21.1111 42.5838 21.0912 42.5416 21.0605C42.4994 21.0298 42.4652 20.9893 42.4421 20.9425L41.5299 19.0943C41.4119 18.855 41.0707 18.855 40.9526 19.0943L40.0404 20.9425C40.0173 20.9893 39.9832 21.0298 39.941 21.0605C39.8987 21.0912 39.8497 21.1111 39.798 21.1186L37.7584 21.415C37.4944 21.4534 37.3889 21.7779 37.58 21.9642L39.0559 23.4028C39.0932 23.4392 39.1212 23.4842 39.1373 23.5338C39.1535 23.5835 39.1573 23.6363 39.1485 23.6878L38.8 25.7191C38.7549 25.9821 39.031 26.1827 39.2671 26.0585L41.0915 25.0994C41.1377 25.0751 41.1891 25.0624 41.2413 25.0624C41.2935 25.0624 41.3449 25.0751 41.3911 25.0994L43.2154 26.0585C43.4515 26.1827 43.7277 25.9821 43.6825 25.7191L43.3341 23.6878C43.3253 23.6363 43.3291 23.5835 43.3452 23.5338C43.3614 23.4842 43.3893 23.4392 43.4267 23.4028L44.9026 21.9642Z" stroke="white" stroke-width="1.2" stroke-miterlimit="10" stroke-linecap="round" stroke-linejoin="round"/>
<path id="Vector_8" d="M23.4563 21.9642C23.6474 21.7779 23.5419 21.4534 23.2779 21.415L21.2383 21.1186C21.1866 21.1111 21.1376 21.0912 21.0953 21.0605C21.0531 21.0298 21.019 20.9893 20.9959 20.9425L20.0837 19.0943C19.9656 18.855 19.6244 18.855 19.5063 19.0943L18.5942 20.9425C18.571 20.9893 18.5369 21.0298 18.4947 21.0605C18.4524 21.0912 18.4034 21.1111 18.3517 21.1186L16.3121 21.415C16.0481 21.4534 15.9426 21.7779 16.1337 21.9642L17.6096 23.4028C17.647 23.4392 17.675 23.4842 17.6911 23.5338C17.7072 23.5835 17.711 23.6363 17.7022 23.6878L17.3538 25.7191C17.3087 25.9821 17.5848 26.1827 17.8209 26.0585L19.6452 25.0994C19.6914 25.0751 19.7428 25.0624 19.795 25.0624C19.8472 25.0624 19.8986 25.0751 19.9448 25.0994L21.7691 26.0585C22.0053 26.1827 22.2814 25.9821 22.2363 25.7191L21.8878 23.6878C21.879 23.6363 21.8828 23.5835 21.8989 23.5338C21.9151 23.4842 21.943 23.4392 21.9804 23.4028L23.4563 21.9642Z" stroke="white" stroke-width="1.2" stroke-miterlimit="10" stroke-linecap="round" stroke-linejoin="round"/>
<path id="Vector_9" d="M20.457 45.5286H21.9438C22.3383 45.5286 22.6581 45.2087 22.6581 44.8142V35.3679C22.6581 34.9734 22.3383 34.6536 21.9438 34.6536H16.7143C16.3198 34.6536 16 34.9734 16 35.3679V44.8142C16 45.2087 16.3198 45.5286 16.7143 45.5286H18.2011" stroke="white" stroke-width="1.2" stroke-miterlimit="10" stroke-linecap="round" stroke-linejoin="round"/>
<path id="Vector_10" d="M34.7267 21.0833L36.4382 19.415C36.7471 19.1139 36.5766 18.5892 36.1497 18.5271L32.8518 18.0479C32.7683 18.0358 32.689 18.0035 32.6207 17.9539C32.5524 17.9043 32.4972 17.8388 32.4599 17.7632L30.9849 14.7748C30.794 14.3879 30.2423 14.3879 30.0514 14.7748L28.5765 17.7632C28.5392 17.8388 28.484 17.9043 28.4157 17.9539C28.3474 18.0035 28.2681 18.0358 28.1846 18.0479L24.8867 18.5271C24.4597 18.5892 24.2892 19.1139 24.5982 19.415L26.9845 21.7412C27.045 21.8001 27.0902 21.8728 27.1163 21.9531C27.1424 22.0333 27.1485 22.1187 27.1343 22.2019L26.5709 25.4865C26.498 25.9117 26.9443 26.236 27.3263 26.0352L30.2759 24.4845C30.3506 24.4452 30.4338 24.4247 30.5182 24.4247C30.6026 24.4247 30.6857 24.4452 30.7604 24.4845L33.7101 26.0352C34.092 26.236 34.5383 25.9117 34.4654 25.4865L34.0971 23.3391" stroke="white" stroke-width="1.2" stroke-miterlimit="10" stroke-linecap="round" stroke-linejoin="round"/>
</g>
</g>
</g>
</g>
</g>
</g>
</g>
</g>
</svg>
