<svg width="18" height="19" viewBox="0 0 18 19" fill="none" xmlns="http://www.w3.org/2000/svg">
<g id="Vector">
<path fill-rule="evenodd" clip-rule="evenodd" d="M8.23977 0.820801C8.33253 0.820801 8.42528 0.820801 8.51804 0.820801C8.56302 5.24769 8.51665 9.66902 8.3789 14.0848C8.11613 14.6108 7.80697 15.1054 7.45135 15.5689C7.21093 15.8715 6.91717 16.1034 6.57017 16.2646C4.66295 16.7318 2.74601 17.1492 0.819336 17.5168C0.887604 16.9837 0.995812 16.4581 1.14398 15.9399C1.24802 15.7429 1.38716 15.5729 1.56138 15.4298C3.25989 15.0283 4.96041 14.6418 6.66293 14.2703C6.64747 10.2818 6.66293 6.29325 6.70931 2.30489C7.1127 1.69475 7.62285 1.20006 8.23977 0.820801Z" fill="#353535"/>
<path fill-rule="evenodd" clip-rule="evenodd" d="M10.6514 8.70501C10.467 6.85246 10.4052 4.96642 10.4659 3.04693C10.8639 2.33977 11.4205 1.78324 12.1355 1.37733C12.1899 1.39675 12.2363 1.42766 12.2747 1.47009C12.321 3.78877 12.3365 6.10766 12.321 8.42675C11.7556 8.47183 11.1991 8.56458 10.6514 8.70501Z" fill="#353535"/>
<path fill-rule="evenodd" clip-rule="evenodd" d="M16.6805 7.6847C16.8351 7.6847 16.9896 7.6847 17.1443 7.6847C17.1388 8.40235 16.9533 9.06713 16.5877 9.67894C14.0049 10.2562 11.4231 10.8282 8.84265 11.3949C8.79628 10.7154 8.78088 10.0352 8.79628 9.3543C11.4547 8.88598 14.0828 8.32945 16.6805 7.6847Z" fill="#333333"/>
<path fill-rule="evenodd" clip-rule="evenodd" d="M6.19916 10.0036C6.2911 10.6355 6.32201 11.2848 6.29191 11.9515C4.82358 12.1895 3.3704 12.4986 1.93241 12.879C1.76572 12.1237 1.92031 11.4434 2.39618 10.8384C3.6443 10.4775 4.91195 10.1992 6.19916 10.0036Z" fill="#333333"/>
<path fill-rule="evenodd" clip-rule="evenodd" d="M11.95 11.0239C12.0427 11.0239 12.1355 11.0239 12.2283 11.0239C12.2283 11.4568 12.2283 11.8896 12.2283 12.3225C12.4059 12.3488 12.5604 12.3179 12.692 12.2297C14.1392 11.9156 15.5923 11.6373 17.0515 11.3949C17.0926 12.1503 16.8762 12.8151 16.4022 13.3892C14.4283 13.8363 12.4496 14.2537 10.4659 14.6414C10.4659 13.5283 10.4659 12.4152 10.4659 11.3022C10.9615 11.2089 11.4562 11.1162 11.95 11.0239Z" fill="#333333"/>
<path fill-rule="evenodd" clip-rule="evenodd" d="M16.5878 15.5689C16.7424 15.5689 16.8969 15.5689 17.0515 15.5689C17.0382 16.2236 16.8836 16.8419 16.5878 17.424C16.4797 17.5246 16.3561 17.6018 16.2167 17.6559C14.304 18.0726 12.3871 18.459 10.4659 18.8154C10.4729 18.2396 10.581 17.6831 10.7905 17.1458C10.8988 16.9757 11.0379 16.8366 11.2079 16.7284C13.0234 16.3903 14.8166 16.0038 16.5878 15.5689Z" fill="#343434"/>
</g>
</svg>
