<svg width="40" height="40" viewBox="0 0 40 40" fill="none" xmlns="http://www.w3.org/2000/svg">
<rect width="40" height="40" rx="20" fill="#FFF8EF"/>
<path d="M25.0767 21.4519C24.3976 21.4512 23.7449 21.7148 23.2567 22.1869L18.2307 19.6739C18.2307 19.5689 18.2517 19.4604 18.2517 19.3519C18.2517 19.2434 18.2517 19.1349 18.2307 19.0299L23.2567 16.5169C24.1558 17.382 25.5396 17.4946 26.5668 16.7863C27.594 16.078 27.9807 14.7446 27.4917 13.5966C27.0028 12.4487 25.7734 11.8036 24.551 12.0534C23.3285 12.3033 22.4509 13.3792 22.4517 14.6269C22.4517 14.7354 22.4517 14.8439 22.4727 14.9489L17.4467 17.4619C16.4119 16.4645 14.7675 16.4847 13.7575 17.5072C12.7475 18.5296 12.7475 20.1742 13.7575 21.1966C14.7675 22.2191 16.4119 22.2393 17.4467 21.2419L22.4727 23.7549C22.4727 23.8599 22.4517 23.9684 22.4517 24.0769C22.4517 25.5266 23.6269 26.7019 25.0767 26.7019C26.5264 26.7019 27.7017 25.5266 27.7017 24.0769C27.7017 22.6271 26.5264 21.4519 25.0767 21.4519Z" fill="#00A991"/>
</svg>
