<svg width="139" height="139" viewBox="0 0 139 139" fill="none" xmlns="http://www.w3.org/2000/svg">
<path d="M69.5 139C107.884 139 139 107.884 139 69.5C139 31.1162 107.884 0 69.5 0C31.1162 0 0 31.1162 0 69.5C0 107.884 31.1162 139 69.5 139Z" fill="url(#paint0_radial_271_27654)"/>
<path d="M95.2432 115.921C93.5106 113.429 94.1276 110.004 96.6202 108.271C98.6302 106.872 100.548 105.346 102.362 103.702C104.611 101.664 108.087 101.834 110.126 104.084C112.164 106.333 111.993 109.809 109.744 111.847C107.579 113.809 105.291 115.629 102.893 117.298C100.401 119.031 96.9752 118.414 95.2432 115.921ZM115.268 96.7907C112.515 95.5102 111.322 92.2417 112.602 89.4891C114.214 86.0161 115.399 82.3607 116.132 78.6027C116.715 75.6233 119.603 73.6808 122.581 74.2641C125.561 74.8469 127.503 77.7344 126.92 80.7133C126.016 85.343 124.555 89.8464 122.569 94.125C121.291 96.873 118.025 98.0728 115.268 96.7907Z" fill="#73CEC1"/>
<path d="M46.7594 98.4192L26.423 75.1448C23.4267 71.7159 23.7781 66.5079 27.2065 63.5122C30.6354 60.5159 35.8439 60.8673 38.8391 64.2957L53.7321 81.3406L100.925 39.8169C104.343 36.8083 109.553 37.1424 112.561 40.56C115.569 43.9787 115.236 49.1877 111.818 52.1957L58.4135 99.1839C54.9886 102.198 49.7613 101.855 46.7594 98.4192Z" fill="white"/>
<defs>
<radialGradient id="paint0_radial_271_27654" cx="0" cy="0" r="1" gradientUnits="userSpaceOnUse" gradientTransform="translate(69.5 69.5) scale(69.5)">
<stop offset="0.021" stop-color="#73CEC1"/>
<stop offset="1" stop-color="#00A991"/>
</radialGradient>
</defs>
</svg>
