<svg width="60" height="60" viewBox="0 0 60 60" fill="none" xmlns="http://www.w3.org/2000/svg">
<g id="Group 1410080673">
<circle id="Base" cx="30" cy="30" r="27" fill="#00A991" stroke="#00A991" stroke-opacity="0.5" stroke-width="5"/>
<path id="Vector" d="M26.7846 23.5613L24.6512 27.2948C24.5102 27.5374 24.419 27.8057 24.3828 28.084C24.3467 28.3623 24.3663 28.645 24.4405 28.9156C24.4682 29.0063 24.5018 29.0959 24.5413 29.1823L22.8687 34.9169C21.7264 34.7137 20.5492 34.9346 19.5582 35.538C18.5672 36.1413 17.8306 37.0857 17.4867 38.1938L15.9063 43.1902C15.7797 43.5911 15.8159 44.0256 16.0072 44.4C16.1984 44.7744 16.5293 45.0584 16.9282 45.1908L19.7214 46.1258C20.1714 46.6327 20.7981 46.9486 21.4733 47.0088C22.1485 47.0691 22.8212 46.8692 23.3539 46.4499C23.8866 46.0307 24.2391 45.4239 24.3392 44.7534C24.4394 44.083 24.2797 43.3996 23.8927 42.843L27.5851 30.1813C27.903 29.9966 28.1669 29.7318 28.3505 29.4132L29.9927 26.5406L31.4578 26.2739L26.0597 44.274C25.9787 44.5418 25.9513 44.8229 25.979 45.1013C26.0068 45.3797 26.0892 45.6499 26.2215 45.8965C26.3538 46.143 26.5335 46.361 26.7502 46.538C26.9669 46.715 27.2163 46.8475 27.4843 46.9279C27.6838 46.9898 27.8915 47.0213 28.1003 47.0213C28.5585 47.0187 29.0038 46.8696 29.3711 46.5958C29.7385 46.322 30.0086 45.9379 30.142 45.4996L32.7869 36.6913L35.7166 39.0856L36.6563 45.2148C36.6984 45.4922 36.795 45.7585 36.9406 45.9983C37.0861 46.2381 37.2777 46.4467 37.5044 46.6121C37.731 46.7775 37.9881 46.8963 38.2609 46.9618C38.5337 47.0273 38.8168 47.0381 39.0937 46.9935C39.6525 46.9069 40.1542 46.6023 40.4887 46.1464C40.8233 45.6905 40.9634 45.1205 40.8783 44.5615L39.8116 37.6226C39.7264 37.1055 39.4565 36.6369 39.0521 36.3036L35.4254 33.3371L36.5699 28.9972L38.259 30.8586C38.4595 31.0768 38.7028 31.2513 38.9739 31.371C39.2449 31.4906 39.5377 31.553 39.834 31.5541H43.0341C43.5999 31.5541 44.1426 31.3293 44.5427 30.9293C44.9428 30.5292 45.1675 29.9865 45.1675 29.4207C45.1675 28.8549 44.9428 28.3123 44.5427 27.9122C44.1426 27.5121 43.5999 27.2873 43.0341 27.2873H40.7797L36.9006 23.0205C37.8099 23.0227 38.6929 22.7158 39.4048 22.1502C40.1167 21.5846 40.6153 20.7939 40.8188 19.9077C41.0223 19.0215 40.9185 18.0924 40.5246 17.2729C40.1307 16.4534 39.47 15.7921 38.6509 15.3975C37.8317 15.0028 36.9028 14.8982 36.0164 15.1009C35.13 15.3035 34.3388 15.8014 33.7726 16.5128C33.2063 17.2242 32.8986 18.1069 32.9 19.0162C32.9013 19.9255 33.2116 20.8073 33.78 21.517L28.2497 22.5224C27.944 22.5769 27.6542 22.6983 27.4009 22.8779C27.1476 23.0575 26.9371 23.2909 26.7846 23.5613ZM24.8538 35.7366C24.5537 35.528 24.2318 35.3526 23.8938 35.2134L25.3696 30.153C25.3941 30.1679 25.4144 30.1882 25.44 30.2026C25.73 30.3674 26.055 30.461 26.3883 30.4757L24.8538 35.7366ZM17.2632 44.1785C17.1304 44.1343 17.0203 44.0397 16.9567 43.9151C16.893 43.7905 16.8809 43.6458 16.9229 43.5124L18.5 38.5159C18.7888 37.5844 19.4332 36.8043 20.2936 36.345C21.1539 35.8856 22.1607 35.7841 23.0954 36.0625C23.6225 36.2167 24.1125 36.4769 24.5354 36.8273L23.0127 42.0478C22.6142 41.815 22.1616 41.6908 21.7001 41.6878C20.9931 41.6886 20.3153 41.9698 19.8154 42.4698C19.3155 42.9697 19.0342 43.6475 19.0334 44.3545C19.036 44.4991 19.0506 44.6433 19.0771 44.7855L17.2632 44.1785ZM21.7001 45.9546C21.2758 45.9546 20.8688 45.786 20.5687 45.4859C20.2686 45.1859 20.1001 44.7789 20.1001 44.3545C20.1001 43.9302 20.2686 43.5232 20.5687 43.2231C20.8688 42.923 21.2758 42.7545 21.7001 42.7545C22.1245 42.7545 22.5315 42.923 22.8315 43.2231C23.1316 43.5232 23.3002 43.9302 23.3002 44.3545C23.3002 44.7789 23.1316 45.1859 22.8315 45.4859C22.5315 45.786 22.1245 45.9546 21.7001 45.9546ZM36.9006 16.087C37.6786 16.087 38.4247 16.396 38.9748 16.9461C39.525 17.4963 39.834 18.2424 39.834 19.0204C39.834 19.7984 39.525 20.5445 38.9748 21.0946C38.4247 21.6448 37.6786 21.9538 36.9006 21.9538C36.1226 21.9538 35.3765 21.6448 34.8264 21.0946C34.2762 20.5445 33.9672 19.7984 33.9672 19.0204C33.9672 18.2424 34.2762 17.4963 34.8264 16.9461C35.3765 16.396 36.1226 16.087 36.9006 16.087ZM34.2664 22.5112C34.4453 22.4726 34.6311 22.4801 34.8064 22.5329C34.9817 22.5857 35.1407 22.6821 35.2686 22.813C35.2894 22.8397 35.3123 22.8637 35.3374 22.8856L40.1492 28.1796C40.1992 28.2346 40.2602 28.2785 40.3282 28.3085C40.3961 28.3385 40.4696 28.354 40.5439 28.354H43.0341C43.317 28.354 43.5884 28.4664 43.7884 28.6664C43.9884 28.8665 44.1008 29.1378 44.1008 29.4207C44.1008 29.7036 43.9884 29.9749 43.7884 30.175C43.5884 30.375 43.317 30.4874 43.0341 30.4874H39.834C39.6857 30.487 39.539 30.4559 39.4033 30.396C39.2675 30.3362 39.1456 30.2489 39.0452 30.1397L36.6985 27.5529C36.6339 27.4819 36.5515 27.4296 36.4597 27.4015C36.368 27.3735 36.2703 27.3707 36.1771 27.3934C36.0839 27.4162 35.9986 27.4637 35.9301 27.5309C35.8616 27.5981 35.8125 27.6826 35.788 27.7753L34.3048 33.3968C34.2787 33.4958 34.2816 33.6001 34.3132 33.6974C34.3448 33.7947 34.4037 33.8809 34.4829 33.9457L38.3764 37.1276C38.5791 37.2951 38.7151 37.5303 38.7593 37.79L39.826 44.7236C39.8486 44.8759 39.8381 45.0314 39.7953 45.1793C39.7525 45.3272 39.6784 45.4642 39.578 45.581C39.4776 45.6978 39.3532 45.7916 39.2133 45.856C39.0734 45.9205 38.9213 45.9541 38.7673 45.9546C38.513 45.9534 38.2674 45.8621 38.074 45.697C37.8805 45.5319 37.7519 45.3036 37.7108 45.0527L36.7406 38.7213C36.7206 38.5908 36.6529 38.4725 36.5507 38.389L32.8439 35.3601C32.776 35.3046 32.6954 35.2668 32.6093 35.2499C32.5233 35.233 32.4344 35.2377 32.3505 35.2633C32.2667 35.289 32.1904 35.335 32.1286 35.3972C32.0667 35.4594 32.0212 35.5358 31.9959 35.6198L29.1206 45.1935C29.0596 45.3948 28.9403 45.5737 28.7778 45.7074C28.6154 45.8411 28.417 45.9239 28.2076 45.9451C27.9983 45.9664 27.7873 45.9253 27.6013 45.8269C27.4153 45.7286 27.2625 45.5774 27.1622 45.3924C27.096 45.2694 27.0548 45.1344 27.0409 44.9954C27.0269 44.8564 27.0406 44.716 27.0811 44.5823L32.7293 25.7497C32.7554 25.6623 32.7588 25.5697 32.739 25.4807C32.7191 25.3916 32.6768 25.3092 32.616 25.2412C32.5552 25.1732 32.478 25.1219 32.3918 25.0922C32.3055 25.0626 32.2131 25.0555 32.1234 25.0718L29.558 25.5358C29.4813 25.5497 29.4087 25.5802 29.3451 25.6251C29.2815 25.6701 29.2286 25.7284 29.19 25.7961L27.424 28.8874C27.3593 29.0177 27.2686 29.1334 27.1575 29.2273C27.0464 29.3213 26.9172 29.3915 26.778 29.4337C26.6387 29.4759 26.4923 29.4892 26.3477 29.4727C26.2031 29.4562 26.0635 29.4102 25.9373 29.3378C25.8111 29.2653 25.7011 29.1677 25.6141 29.0512C25.527 28.9346 25.4647 28.8014 25.431 28.6599C25.3973 28.5183 25.3929 28.3713 25.4181 28.228C25.4433 28.0847 25.4976 27.9481 25.5776 27.8265L27.711 24.0883C27.8657 23.8168 28.1323 23.6285 28.4395 23.5741L34.2664 22.5112Z" fill="white"/>
</g>
</svg>
