<svg width="60" height="60" viewBox="0 0 60 60" fill="none" xmlns="http://www.w3.org/2000/svg">
<circle cx="30" cy="30" r="27" fill="#00A991" stroke="#00A991" stroke-opacity="0.5" stroke-width="5"/>
<mask id="mask0_221_6398" style="mask-type:luminance" maskUnits="userSpaceOnUse" x="14" y="14" width="33" height="33">
<path d="M46.5576 46.5576V14.4424H14.4424V46.5576H46.5576Z" fill="white" stroke="white" stroke-width="0.883905"/>
</mask>
<g mask="url(#mask0_221_6398)">
<path d="M46.5163 34.2195V37.4795H45.1549C44.5145 37.4795 43.9951 36.9607 43.9951 36.3204V35.3793C43.9951 34.739 44.5145 34.2195 45.1549 34.2195H46.5163Z" stroke="white" stroke-width="0.883905" stroke-miterlimit="10" stroke-linecap="round" stroke-linejoin="round"/>
<path d="M17.6189 35.3793V36.3204C17.6189 36.9607 17.1001 37.4795 16.4591 37.4795H14.6309L15.4898 34.2195H16.4591C17.1001 34.2195 17.6189 34.7389 17.6189 35.3793Z" stroke="white" stroke-width="0.883905" stroke-miterlimit="10" stroke-linecap="round" stroke-linejoin="round"/>
<path d="M26.6154 26.9566C26.6154 26.4772 26.2267 26.0885 25.7472 26.0885H20.8868C20.7712 26.0886 20.659 26.127 20.5676 26.1976C20.4762 26.2682 20.4107 26.3671 20.3813 26.4788L19.034 31.5917C18.889 32.1423 19.3041 32.681 19.8734 32.681H25.7472C26.2267 32.681 26.6154 32.2924 26.6154 31.813V26.9566Z" stroke="white" stroke-width="0.883905" stroke-miterlimit="10" stroke-linecap="round" stroke-linejoin="round"/>
<path d="M35.8698 27.8602L35.5057 26.4783C35.4763 26.3666 35.4108 26.2679 35.3194 26.1974C35.228 26.1269 35.1159 26.0886 35.0005 26.0886H30.3193C29.8398 26.0886 29.4512 26.4772 29.4512 26.9566V31.8129C29.4512 32.2924 29.8398 32.681 30.3193 32.681H36.0138C36.589 32.681 36.9975 32.134 36.8494 31.5783L36.8462 31.5662L36.3743 29.7751" stroke="white" stroke-width="0.883905" stroke-miterlimit="10" stroke-linecap="round" stroke-linejoin="round"/>
<path d="M24.7813 40.5322C24.7813 41.4421 24.0437 42.1797 23.1338 42.1797C22.2239 42.1797 21.4863 41.4421 21.4863 40.5322C21.4863 39.6223 22.2239 38.8847 23.1338 38.8847C24.0437 38.8847 24.7813 39.6223 24.7813 40.5322Z" stroke="white" stroke-width="0.883905" stroke-miterlimit="10" stroke-linecap="round" stroke-linejoin="round"/>
<path d="M38.5274 40.5322C38.5274 41.4421 37.7898 42.1797 36.8799 42.1797C35.97 42.1797 35.2324 41.4421 35.2324 40.5322C35.2324 39.6223 35.97 38.8847 36.8799 38.8847C37.7898 38.8847 38.5274 39.6223 38.5274 40.5322Z" stroke="white" stroke-width="0.883905" stroke-miterlimit="10" stroke-linecap="round" stroke-linejoin="round"/>
<path d="M22.1527 17.847H18.8718C17.9928 17.847 17.2803 18.5595 17.2803 19.4384V21.7389C17.2803 22.6179 17.9928 23.3303 18.8718 23.3303H22.1527V17.847Z" stroke="white" stroke-width="0.883905" stroke-miterlimit="10" stroke-linecap="round" stroke-linejoin="round"/>
<path d="M25.1674 23.3303V17.847C25.1674 17.0144 24.4924 16.3394 23.6598 16.3394C22.8273 16.3394 22.1523 17.0144 22.1523 17.847V23.3303H25.1674Z" stroke="white" stroke-width="0.883905" stroke-miterlimit="10" stroke-linecap="round" stroke-linejoin="round"/>
<path d="M25.168 23.3303H30.2424V17.847H25.168V23.3303Z" stroke="white" stroke-width="0.883905" stroke-miterlimit="10" stroke-linecap="round" stroke-linejoin="round"/>
<path d="M33.2572 23.3303V17.847C33.2572 17.0144 32.5823 16.3394 31.7497 16.3394C30.9171 16.3394 30.2422 17.0144 30.2422 17.847V23.3303H33.2572Z" stroke="white" stroke-width="0.883905" stroke-miterlimit="10" stroke-linecap="round" stroke-linejoin="round"/>
<path d="M40.3244 19.4384H38.1299V21.7389H40.3244C40.9596 21.7389 41.4746 21.2239 41.4746 20.5887C41.4746 19.9534 40.9596 19.4384 40.3244 19.4384Z" stroke="white" stroke-width="0.883905" stroke-miterlimit="10" stroke-linecap="round" stroke-linejoin="round"/>
<path d="M36.5378 17.847H33.2568V23.3303H36.5378C37.4167 23.3303 38.1292 22.6179 38.1292 21.7389V19.4384C38.1292 18.5595 37.4167 17.847 36.5378 17.847Z" stroke="white" stroke-width="0.883905" stroke-miterlimit="10" stroke-linecap="round" stroke-linejoin="round"/>
<path d="M27.2616 40.5322C27.2616 42.8122 25.4133 44.6605 23.1332 44.6605C20.8532 44.6605 19.0049 42.8122 19.0049 40.5322C19.0049 38.2521 20.8532 36.4038 23.1332 36.4038C25.4133 36.4038 27.2616 38.2521 27.2616 40.5322Z" stroke="white" stroke-width="0.883905" stroke-miterlimit="10" stroke-linecap="round" stroke-linejoin="round"/>
<path d="M16.1247 31.8098L15.4897 34.2195L14.6308 37.4794L14.5592 37.75C14.1816 39.1836 15.2626 40.587 16.7454 40.587H19.0068C19.0066 40.5687 19.0055 40.5506 19.0055 40.5322C19.0055 38.2522 20.8538 36.4038 23.1338 36.4038C25.4139 36.4038 27.2622 38.2522 27.2622 40.5322C27.2622 40.5506 27.261 40.5687 27.2608 40.587H32.7535C32.7533 40.5687 32.7522 40.5506 32.7522 40.5322C32.7522 38.2522 34.6004 36.4038 36.8805 36.4038C39.1605 36.4038 41.0088 38.2522 41.0088 40.5322C41.0088 40.5506 41.0076 40.5687 41.0074 40.587H44.2561C45.5046 40.587 46.5166 39.5751 46.5166 38.326V34.2195C46.5166 32.9711 45.5046 31.959 44.2561 31.959H40.9351C40.6105 31.9589 40.2951 31.8514 40.038 31.6533C39.7809 31.4551 39.5966 31.1775 39.5139 30.8636L38.1736 25.776C37.794 24.3345 36.4904 23.3303 35.001 23.3303H20.8874C19.3972 23.3303 18.0943 24.3345 17.7147 25.776L16.6342 29.8762" stroke="white" stroke-width="0.883905" stroke-miterlimit="10" stroke-linecap="round" stroke-linejoin="round"/>
<path d="M41.0087 40.5322C41.0087 42.8122 39.1603 44.6605 36.8803 44.6605C34.6003 44.6605 32.752 42.8122 32.752 40.5322C32.752 38.2521 34.6003 36.4038 36.8803 36.4038C39.1603 36.4038 41.0087 38.2521 41.0087 40.5322Z" stroke="white" stroke-width="0.883905" stroke-miterlimit="10" stroke-linecap="round" stroke-linejoin="round"/>
</g>
</svg>
